<?xml version="1.0" encoding="utf-8" standalone="no"?>
<!DOCTYPE svg PUBLIC "-//W3C//DTD SVG 1.1//EN"
  "http://www.w3.org/Graphics/SVG/1.1/DTD/svg11.dtd">
<svg xmlns:xlink="http://www.w3.org/1999/xlink" width="1080pt" height="576pt" viewBox="0 0 1080 576" xmlns="http://www.w3.org/2000/svg" version="1.1">
 <metadata>
  <rdf:RDF xmlns:dc="http://purl.org/dc/elements/1.1/" xmlns:cc="http://creativecommons.org/ns#" xmlns:rdf="http://www.w3.org/1999/02/22-rdf-syntax-ns#">
   <cc:Work>
    <dc:type rdf:resource="http://purl.org/dc/dcmitype/StillImage"/>
    <dc:date>2026-06-17T22:35:06.270530</dc:date>
    <dc:format>image/svg+xml</dc:format>
    <dc:creator>
     <cc:Agent>
      <dc:title>Matplotlib v3.10.0, https://matplotlib.org/</dc:title>
     </cc:Agent>
    </dc:creator>
   </cc:Work>
  </rdf:RDF>
 </metadata>
 <defs>
  <style type="text/css">*{stroke-linejoin: round; stroke-linecap: butt}</style>
 </defs>
 <g id="figure_1">
  <g id="patch_1">
   <path d="M 0 576 
L 1080 576 
L 1080 0 
L 0 0 
z
" style="fill: #ffffff"/>
  </g>
  <g id="axes_1">
   <g id="patch_2">
    <path d="M 60.32 534.04 
L 985.03 534.04 
L 985.03 27.24 
L 60.32 27.24 
z
" style="fill: #ffffff"/>
   </g>
   <g id="matplotlib.axis_1">
    <g id="xtick_1">
     <g id="line2d_1">
      <path d="M 96.05825 534.04 
L 96.05825 27.24 
" clip-path="url(#pc2cdb94568)" style="fill: none; stroke-dasharray: 0.8,1.32; stroke-dashoffset: 0; stroke: #b0b0b0; stroke-opacity: 0.6; stroke-width: 0.8"/>
     </g>
     <g id="line2d_2">
      <defs>
       <path id="mfba402cf4d" d="M 0 0 
L 0 3.5 
" style="stroke: #000000; stroke-width: 0.8"/>
      </defs>
      <g>
       <use xlink:href="#mfba402cf4d" x="96.05825" y="534.04" style="stroke: #000000; stroke-width: 0.8"/>
      </g>
     </g>
     <g id="text_1">
      <!-- 2020 -->
      <g transform="translate(83.33325 548.638438) scale(0.1 -0.1)">
       <defs>
        <path id="DejaVuSans-32" d="M 1228 531 
L 3431 531 
L 3431 0 
L 469 0 
L 469 531 
Q 828 903 1448 1529 
Q 2069 2156 2228 2338 
Q 2531 2678 2651 2914 
Q 2772 3150 2772 3378 
Q 2772 3750 2511 3984 
Q 2250 4219 1831 4219 
Q 1534 4219 1204 4116 
Q 875 4013 500 3803 
L 500 4441 
Q 881 4594 1212 4672 
Q 1544 4750 1819 4750 
Q 2544 4750 2975 4387 
Q 3406 4025 3406 3419 
Q 3406 3131 3298 2873 
Q 3191 2616 2906 2266 
Q 2828 2175 2409 1742 
Q 1991 1309 1228 531 
z
" transform="scale(0.015625)"/>
        <path id="DejaVuSans-30" d="M 2034 4250 
Q 1547 4250 1301 3770 
Q 1056 3291 1056 2328 
Q 1056 1369 1301 889 
Q 1547 409 2034 409 
Q 2525 409 2770 889 
Q 3016 1369 3016 2328 
Q 3016 3291 2770 3770 
Q 2525 4250 2034 4250 
z
M 2034 4750 
Q 2819 4750 3233 4129 
Q 3647 3509 3647 2328 
Q 3647 1150 3233 529 
Q 2819 -91 2034 -91 
Q 1250 -91 836 529 
Q 422 1150 422 2328 
Q 422 3509 836 4129 
Q 1250 4750 2034 4750 
z
" transform="scale(0.015625)"/>
       </defs>
       <use xlink:href="#DejaVuSans-32"/>
       <use xlink:href="#DejaVuSans-30" transform="translate(63.623047 0)"/>
       <use xlink:href="#DejaVuSans-32" transform="translate(127.246094 0)"/>
       <use xlink:href="#DejaVuSans-30" transform="translate(190.869141 0)"/>
      </g>
     </g>
    </g>
    <g id="xtick_2">
     <g id="line2d_3">
      <path d="M 240.034027 534.04 
L 240.034027 27.24 
" clip-path="url(#pc2cdb94568)" style="fill: none; stroke-dasharray: 0.8,1.32; stroke-dashoffset: 0; stroke: #b0b0b0; stroke-opacity: 0.6; stroke-width: 0.8"/>
     </g>
     <g id="line2d_4">
      <g>
       <use xlink:href="#mfba402cf4d" x="240.034027" y="534.04" style="stroke: #000000; stroke-width: 0.8"/>
      </g>
     </g>
     <g id="text_2">
      <!-- 2021 -->
      <g transform="translate(227.309027 548.638438) scale(0.1 -0.1)">
       <defs>
        <path id="DejaVuSans-31" d="M 794 531 
L 1825 531 
L 1825 4091 
L 703 3866 
L 703 4441 
L 1819 4666 
L 2450 4666 
L 2450 531 
L 3481 531 
L 3481 0 
L 794 0 
L 794 531 
z
" transform="scale(0.015625)"/>
       </defs>
       <use xlink:href="#DejaVuSans-32"/>
       <use xlink:href="#DejaVuSans-30" transform="translate(63.623047 0)"/>
       <use xlink:href="#DejaVuSans-32" transform="translate(127.246094 0)"/>
       <use xlink:href="#DejaVuSans-31" transform="translate(190.869141 0)"/>
      </g>
     </g>
    </g>
    <g id="xtick_3">
     <g id="line2d_5">
      <path d="M 383.616428 534.04 
L 383.616428 27.24 
" clip-path="url(#pc2cdb94568)" style="fill: none; stroke-dasharray: 0.8,1.32; stroke-dashoffset: 0; stroke: #b0b0b0; stroke-opacity: 0.6; stroke-width: 0.8"/>
     </g>
     <g id="line2d_6">
      <g>
       <use xlink:href="#mfba402cf4d" x="383.616428" y="534.04" style="stroke: #000000; stroke-width: 0.8"/>
      </g>
     </g>
     <g id="text_3">
      <!-- 2022 -->
      <g transform="translate(370.891428 548.638438) scale(0.1 -0.1)">
       <use xlink:href="#DejaVuSans-32"/>
       <use xlink:href="#DejaVuSans-30" transform="translate(63.623047 0)"/>
       <use xlink:href="#DejaVuSans-32" transform="translate(127.246094 0)"/>
       <use xlink:href="#DejaVuSans-32" transform="translate(190.869141 0)"/>
      </g>
     </g>
    </g>
    <g id="xtick_4">
     <g id="line2d_7">
      <path d="M 527.198829 534.04 
L 527.198829 27.24 
" clip-path="url(#pc2cdb94568)" style="fill: none; stroke-dasharray: 0.8,1.32; stroke-dashoffset: 0; stroke: #b0b0b0; stroke-opacity: 0.6; stroke-width: 0.8"/>
     </g>
     <g id="line2d_8">
      <g>
       <use xlink:href="#mfba402cf4d" x="527.198829" y="534.04" style="stroke: #000000; stroke-width: 0.8"/>
      </g>
     </g>
     <g id="text_4">
      <!-- 2023 -->
      <g transform="translate(514.473829 548.638438) scale(0.1 -0.1)">
       <defs>
        <path id="DejaVuSans-33" d="M 2597 2516 
Q 3050 2419 3304 2112 
Q 3559 1806 3559 1356 
Q 3559 666 3084 287 
Q 2609 -91 1734 -91 
Q 1441 -91 1130 -33 
Q 819 25 488 141 
L 488 750 
Q 750 597 1062 519 
Q 1375 441 1716 441 
Q 2309 441 2620 675 
Q 2931 909 2931 1356 
Q 2931 1769 2642 2001 
Q 2353 2234 1838 2234 
L 1294 2234 
L 1294 2753 
L 1863 2753 
Q 2328 2753 2575 2939 
Q 2822 3125 2822 3475 
Q 2822 3834 2567 4026 
Q 2313 4219 1838 4219 
Q 1578 4219 1281 4162 
Q 984 4106 628 3988 
L 628 4550 
Q 988 4650 1302 4700 
Q 1616 4750 1894 4750 
Q 2613 4750 3031 4423 
Q 3450 4097 3450 3541 
Q 3450 3153 3228 2886 
Q 3006 2619 2597 2516 
z
" transform="scale(0.015625)"/>
       </defs>
       <use xlink:href="#DejaVuSans-32"/>
       <use xlink:href="#DejaVuSans-30" transform="translate(63.623047 0)"/>
       <use xlink:href="#DejaVuSans-32" transform="translate(127.246094 0)"/>
       <use xlink:href="#DejaVuSans-33" transform="translate(190.869141 0)"/>
      </g>
     </g>
    </g>
    <g id="xtick_5">
     <g id="line2d_9">
      <path d="M 670.78123 534.04 
L 670.78123 27.24 
" clip-path="url(#pc2cdb94568)" style="fill: none; stroke-dasharray: 0.8,1.32; stroke-dashoffset: 0; stroke: #b0b0b0; stroke-opacity: 0.6; stroke-width: 0.8"/>
     </g>
     <g id="line2d_10">
      <g>
       <use xlink:href="#mfba402cf4d" x="670.78123" y="534.04" style="stroke: #000000; stroke-width: 0.8"/>
      </g>
     </g>
     <g id="text_5">
      <!-- 2024 -->
      <g transform="translate(658.05623 548.638438) scale(0.1 -0.1)">
       <defs>
        <path id="DejaVuSans-34" d="M 2419 4116 
L 825 1625 
L 2419 1625 
L 2419 4116 
z
M 2253 4666 
L 3047 4666 
L 3047 1625 
L 3713 1625 
L 3713 1100 
L 3047 1100 
L 3047 0 
L 2419 0 
L 2419 1100 
L 313 1100 
L 313 1709 
L 2253 4666 
z
" transform="scale(0.015625)"/>
       </defs>
       <use xlink:href="#DejaVuSans-32"/>
       <use xlink:href="#DejaVuSans-30" transform="translate(63.623047 0)"/>
       <use xlink:href="#DejaVuSans-32" transform="translate(127.246094 0)"/>
       <use xlink:href="#DejaVuSans-34" transform="translate(190.869141 0)"/>
      </g>
     </g>
    </g>
    <g id="xtick_6">
     <g id="line2d_11">
      <path d="M 814.757007 534.04 
L 814.757007 27.24 
" clip-path="url(#pc2cdb94568)" style="fill: none; stroke-dasharray: 0.8,1.32; stroke-dashoffset: 0; stroke: #b0b0b0; stroke-opacity: 0.6; stroke-width: 0.8"/>
     </g>
     <g id="line2d_12">
      <g>
       <use xlink:href="#mfba402cf4d" x="814.757007" y="534.04" style="stroke: #000000; stroke-width: 0.8"/>
      </g>
     </g>
     <g id="text_6">
      <!-- 2025 -->
      <g transform="translate(802.032007 548.638438) scale(0.1 -0.1)">
       <defs>
        <path id="DejaVuSans-35" d="M 691 4666 
L 3169 4666 
L 3169 4134 
L 1269 4134 
L 1269 2991 
Q 1406 3038 1543 3061 
Q 1681 3084 1819 3084 
Q 2600 3084 3056 2656 
Q 3513 2228 3513 1497 
Q 3513 744 3044 326 
Q 2575 -91 1722 -91 
Q 1428 -91 1123 -41 
Q 819 9 494 109 
L 494 744 
Q 775 591 1075 516 
Q 1375 441 1709 441 
Q 2250 441 2565 725 
Q 2881 1009 2881 1497 
Q 2881 1984 2565 2268 
Q 2250 2553 1709 2553 
Q 1456 2553 1204 2497 
Q 953 2441 691 2322 
L 691 4666 
z
" transform="scale(0.015625)"/>
       </defs>
       <use xlink:href="#DejaVuSans-32"/>
       <use xlink:href="#DejaVuSans-30" transform="translate(63.623047 0)"/>
       <use xlink:href="#DejaVuSans-32" transform="translate(127.246094 0)"/>
       <use xlink:href="#DejaVuSans-35" transform="translate(190.869141 0)"/>
      </g>
     </g>
    </g>
    <g id="xtick_7">
     <g id="line2d_13">
      <path d="M 958.339408 534.04 
L 958.339408 27.24 
" clip-path="url(#pc2cdb94568)" style="fill: none; stroke-dasharray: 0.8,1.32; stroke-dashoffset: 0; stroke: #b0b0b0; stroke-opacity: 0.6; stroke-width: 0.8"/>
     </g>
     <g id="line2d_14">
      <g>
       <use xlink:href="#mfba402cf4d" x="958.339408" y="534.04" style="stroke: #000000; stroke-width: 0.8"/>
      </g>
     </g>
     <g id="text_7">
      <!-- 2026 -->
      <g transform="translate(945.614408 548.638438) scale(0.1 -0.1)">
       <defs>
        <path id="DejaVuSans-36" d="M 2113 2584 
Q 1688 2584 1439 2293 
Q 1191 2003 1191 1497 
Q 1191 994 1439 701 
Q 1688 409 2113 409 
Q 2538 409 2786 701 
Q 3034 994 3034 1497 
Q 3034 2003 2786 2293 
Q 2538 2584 2113 2584 
z
M 3366 4563 
L 3366 3988 
Q 3128 4100 2886 4159 
Q 2644 4219 2406 4219 
Q 1781 4219 1451 3797 
Q 1122 3375 1075 2522 
Q 1259 2794 1537 2939 
Q 1816 3084 2150 3084 
Q 2853 3084 3261 2657 
Q 3669 2231 3669 1497 
Q 3669 778 3244 343 
Q 2819 -91 2113 -91 
Q 1303 -91 875 529 
Q 447 1150 447 2328 
Q 447 3434 972 4092 
Q 1497 4750 2381 4750 
Q 2619 4750 2861 4703 
Q 3103 4656 3366 4563 
z
" transform="scale(0.015625)"/>
       </defs>
       <use xlink:href="#DejaVuSans-32"/>
       <use xlink:href="#DejaVuSans-30" transform="translate(63.623047 0)"/>
       <use xlink:href="#DejaVuSans-32" transform="translate(127.246094 0)"/>
       <use xlink:href="#DejaVuSans-36" transform="translate(190.869141 0)"/>
      </g>
     </g>
    </g>
    <g id="text_8">
     <!-- Data -->
     <g transform="translate(510.736719 562.316563) scale(0.1 -0.1)">
      <defs>
       <path id="DejaVuSans-44" d="M 1259 4147 
L 1259 519 
L 2022 519 
Q 2988 519 3436 956 
Q 3884 1394 3884 2338 
Q 3884 3275 3436 3711 
Q 2988 4147 2022 4147 
L 1259 4147 
z
M 628 4666 
L 1925 4666 
Q 3281 4666 3915 4102 
Q 4550 3538 4550 2338 
Q 4550 1131 3912 565 
Q 3275 0 1925 0 
L 628 0 
L 628 4666 
z
" transform="scale(0.015625)"/>
       <path id="DejaVuSans-61" d="M 2194 1759 
Q 1497 1759 1228 1600 
Q 959 1441 959 1056 
Q 959 750 1161 570 
Q 1363 391 1709 391 
Q 2188 391 2477 730 
Q 2766 1069 2766 1631 
L 2766 1759 
L 2194 1759 
z
M 3341 1997 
L 3341 0 
L 2766 0 
L 2766 531 
Q 2569 213 2275 61 
Q 1981 -91 1556 -91 
Q 1019 -91 701 211 
Q 384 513 384 1019 
Q 384 1609 779 1909 
Q 1175 2209 1959 2209 
L 2766 2209 
L 2766 2266 
Q 2766 2663 2505 2880 
Q 2244 3097 1772 3097 
Q 1472 3097 1187 3025 
Q 903 2953 641 2809 
L 641 3341 
Q 956 3463 1253 3523 
Q 1550 3584 1831 3584 
Q 2591 3584 2966 3190 
Q 3341 2797 3341 1997 
z
" transform="scale(0.015625)"/>
       <path id="DejaVuSans-74" d="M 1172 4494 
L 1172 3500 
L 2356 3500 
L 2356 3053 
L 1172 3053 
L 1172 1153 
Q 1172 725 1289 603 
Q 1406 481 1766 481 
L 2356 481 
L 2356 0 
L 1766 0 
Q 1100 0 847 248 
Q 594 497 594 1153 
L 594 3053 
L 172 3053 
L 172 3500 
L 594 3500 
L 594 4494 
L 1172 4494 
z
" transform="scale(0.015625)"/>
      </defs>
      <use xlink:href="#DejaVuSans-44"/>
      <use xlink:href="#DejaVuSans-61" transform="translate(77.001953 0)"/>
      <use xlink:href="#DejaVuSans-74" transform="translate(138.28125 0)"/>
      <use xlink:href="#DejaVuSans-61" transform="translate(177.490234 0)"/>
     </g>
    </g>
   </g>
   <g id="matplotlib.axis_2">
    <g id="ytick_1">
     <g id="line2d_15">
      <path d="M 60.32 511.003636 
L 985.03 511.003636 
" clip-path="url(#pc2cdb94568)" style="fill: none; stroke-dasharray: 0.8,1.32; stroke-dashoffset: 0; stroke: #b0b0b0; stroke-opacity: 0.6; stroke-width: 0.8"/>
     </g>
     <g id="line2d_16">
      <defs>
       <path id="m57232f862d" d="M 0 0 
L -3.5 0 
" style="stroke: #000000; stroke-width: 0.8"/>
      </defs>
      <g>
       <use xlink:href="#m57232f862d" x="60.32" y="511.003636" style="stroke: #000000; stroke-width: 0.8"/>
      </g>
     </g>
     <g id="text_9">
      <!-- 0 -->
      <g style="fill: #ff0000" transform="translate(46.9575 514.802855) scale(0.1 -0.1)">
       <use xlink:href="#DejaVuSans-30"/>
      </g>
     </g>
    </g>
    <g id="ytick_2">
     <g id="line2d_17">
      <path d="M 60.32 434.087564 
L 985.03 434.087564 
" clip-path="url(#pc2cdb94568)" style="fill: none; stroke-dasharray: 0.8,1.32; stroke-dashoffset: 0; stroke: #b0b0b0; stroke-opacity: 0.6; stroke-width: 0.8"/>
     </g>
     <g id="line2d_18">
      <g>
       <use xlink:href="#m57232f862d" x="60.32" y="434.087564" style="stroke: #000000; stroke-width: 0.8"/>
      </g>
     </g>
     <g id="text_10">
      <!-- 500 -->
      <g style="fill: #ff0000" transform="translate(34.2325 437.886783) scale(0.1 -0.1)">
       <use xlink:href="#DejaVuSans-35"/>
       <use xlink:href="#DejaVuSans-30" transform="translate(63.623047 0)"/>
       <use xlink:href="#DejaVuSans-30" transform="translate(127.246094 0)"/>
      </g>
     </g>
    </g>
    <g id="ytick_3">
     <g id="line2d_19">
      <path d="M 60.32 357.171492 
L 985.03 357.171492 
" clip-path="url(#pc2cdb94568)" style="fill: none; stroke-dasharray: 0.8,1.32; stroke-dashoffset: 0; stroke: #b0b0b0; stroke-opacity: 0.6; stroke-width: 0.8"/>
     </g>
     <g id="line2d_20">
      <g>
       <use xlink:href="#m57232f862d" x="60.32" y="357.171492" style="stroke: #000000; stroke-width: 0.8"/>
      </g>
     </g>
     <g id="text_11">
      <!-- 1,000 -->
      <g style="fill: #ff0000" transform="translate(24.691875 360.970711) scale(0.1 -0.1)">
       <defs>
        <path id="DejaVuSans-2c" d="M 750 794 
L 1409 794 
L 1409 256 
L 897 -744 
L 494 -744 
L 750 256 
L 750 794 
z
" transform="scale(0.015625)"/>
       </defs>
       <use xlink:href="#DejaVuSans-31"/>
       <use xlink:href="#DejaVuSans-2c" transform="translate(63.623047 0)"/>
       <use xlink:href="#DejaVuSans-30" transform="translate(95.410156 0)"/>
       <use xlink:href="#DejaVuSans-30" transform="translate(159.033203 0)"/>
       <use xlink:href="#DejaVuSans-30" transform="translate(222.65625 0)"/>
      </g>
     </g>
    </g>
    <g id="ytick_4">
     <g id="line2d_21">
      <path d="M 60.32 280.25542 
L 985.03 280.25542 
" clip-path="url(#pc2cdb94568)" style="fill: none; stroke-dasharray: 0.8,1.32; stroke-dashoffset: 0; stroke: #b0b0b0; stroke-opacity: 0.6; stroke-width: 0.8"/>
     </g>
     <g id="line2d_22">
      <g>
       <use xlink:href="#m57232f862d" x="60.32" y="280.25542" style="stroke: #000000; stroke-width: 0.8"/>
      </g>
     </g>
     <g id="text_12">
      <!-- 1,500 -->
      <g style="fill: #ff0000" transform="translate(24.691875 284.054638) scale(0.1 -0.1)">
       <use xlink:href="#DejaVuSans-31"/>
       <use xlink:href="#DejaVuSans-2c" transform="translate(63.623047 0)"/>
       <use xlink:href="#DejaVuSans-35" transform="translate(95.410156 0)"/>
       <use xlink:href="#DejaVuSans-30" transform="translate(159.033203 0)"/>
       <use xlink:href="#DejaVuSans-30" transform="translate(222.65625 0)"/>
      </g>
     </g>
    </g>
    <g id="ytick_5">
     <g id="line2d_23">
      <path d="M 60.32 203.339347 
L 985.03 203.339347 
" clip-path="url(#pc2cdb94568)" style="fill: none; stroke-dasharray: 0.8,1.32; stroke-dashoffset: 0; stroke: #b0b0b0; stroke-opacity: 0.6; stroke-width: 0.8"/>
     </g>
     <g id="line2d_24">
      <g>
       <use xlink:href="#m57232f862d" x="60.32" y="203.339347" style="stroke: #000000; stroke-width: 0.8"/>
      </g>
     </g>
     <g id="text_13">
      <!-- 2,000 -->
      <g style="fill: #ff0000" transform="translate(24.691875 207.138566) scale(0.1 -0.1)">
       <use xlink:href="#DejaVuSans-32"/>
       <use xlink:href="#DejaVuSans-2c" transform="translate(63.623047 0)"/>
       <use xlink:href="#DejaVuSans-30" transform="translate(95.410156 0)"/>
       <use xlink:href="#DejaVuSans-30" transform="translate(159.033203 0)"/>
       <use xlink:href="#DejaVuSans-30" transform="translate(222.65625 0)"/>
      </g>
     </g>
    </g>
    <g id="ytick_6">
     <g id="line2d_25">
      <path d="M 60.32 126.423275 
L 985.03 126.423275 
" clip-path="url(#pc2cdb94568)" style="fill: none; stroke-dasharray: 0.8,1.32; stroke-dashoffset: 0; stroke: #b0b0b0; stroke-opacity: 0.6; stroke-width: 0.8"/>
     </g>
     <g id="line2d_26">
      <g>
       <use xlink:href="#m57232f862d" x="60.32" y="126.423275" style="stroke: #000000; stroke-width: 0.8"/>
      </g>
     </g>
     <g id="text_14">
      <!-- 2,500 -->
      <g style="fill: #ff0000" transform="translate(24.691875 130.222494) scale(0.1 -0.1)">
       <use xlink:href="#DejaVuSans-32"/>
       <use xlink:href="#DejaVuSans-2c" transform="translate(63.623047 0)"/>
       <use xlink:href="#DejaVuSans-35" transform="translate(95.410156 0)"/>
       <use xlink:href="#DejaVuSans-30" transform="translate(159.033203 0)"/>
       <use xlink:href="#DejaVuSans-30" transform="translate(222.65625 0)"/>
      </g>
     </g>
    </g>
    <g id="ytick_7">
     <g id="line2d_27">
      <path d="M 60.32 49.507203 
L 985.03 49.507203 
" clip-path="url(#pc2cdb94568)" style="fill: none; stroke-dasharray: 0.8,1.32; stroke-dashoffset: 0; stroke: #b0b0b0; stroke-opacity: 0.6; stroke-width: 0.8"/>
     </g>
     <g id="line2d_28">
      <g>
       <use xlink:href="#m57232f862d" x="60.32" y="49.507203" style="stroke: #000000; stroke-width: 0.8"/>
      </g>
     </g>
     <g id="text_15">
      <!-- 3,000 -->
      <g style="fill: #ff0000" transform="translate(24.691875 53.306422) scale(0.1 -0.1)">
       <use xlink:href="#DejaVuSans-33"/>
       <use xlink:href="#DejaVuSans-2c" transform="translate(63.623047 0)"/>
       <use xlink:href="#DejaVuSans-30" transform="translate(95.410156 0)"/>
       <use xlink:href="#DejaVuSans-30" transform="translate(159.033203 0)"/>
       <use xlink:href="#DejaVuSans-30" transform="translate(222.65625 0)"/>
      </g>
     </g>
    </g>
    <g id="text_16">
     <!-- Mortes Diárias (Média Móvel 14d) -->
     <g style="fill: #ff0000" transform="translate(18.612187 364.737656) rotate(-90) scale(0.1 -0.1)">
      <defs>
       <path id="DejaVuSans-4d" d="M 628 4666 
L 1569 4666 
L 2759 1491 
L 3956 4666 
L 4897 4666 
L 4897 0 
L 4281 0 
L 4281 4097 
L 3078 897 
L 2444 897 
L 1241 4097 
L 1241 0 
L 628 0 
L 628 4666 
z
" transform="scale(0.015625)"/>
       <path id="DejaVuSans-6f" d="M 1959 3097 
Q 1497 3097 1228 2736 
Q 959 2375 959 1747 
Q 959 1119 1226 758 
Q 1494 397 1959 397 
Q 2419 397 2687 759 
Q 2956 1122 2956 1747 
Q 2956 2369 2687 2733 
Q 2419 3097 1959 3097 
z
M 1959 3584 
Q 2709 3584 3137 3096 
Q 3566 2609 3566 1747 
Q 3566 888 3137 398 
Q 2709 -91 1959 -91 
Q 1206 -91 779 398 
Q 353 888 353 1747 
Q 353 2609 779 3096 
Q 1206 3584 1959 3584 
z
" transform="scale(0.015625)"/>
       <path id="DejaVuSans-72" d="M 2631 2963 
Q 2534 3019 2420 3045 
Q 2306 3072 2169 3072 
Q 1681 3072 1420 2755 
Q 1159 2438 1159 1844 
L 1159 0 
L 581 0 
L 581 3500 
L 1159 3500 
L 1159 2956 
Q 1341 3275 1631 3429 
Q 1922 3584 2338 3584 
Q 2397 3584 2469 3576 
Q 2541 3569 2628 3553 
L 2631 2963 
z
" transform="scale(0.015625)"/>
       <path id="DejaVuSans-65" d="M 3597 1894 
L 3597 1613 
L 953 1613 
Q 991 1019 1311 708 
Q 1631 397 2203 397 
Q 2534 397 2845 478 
Q 3156 559 3463 722 
L 3463 178 
Q 3153 47 2828 -22 
Q 2503 -91 2169 -91 
Q 1331 -91 842 396 
Q 353 884 353 1716 
Q 353 2575 817 3079 
Q 1281 3584 2069 3584 
Q 2775 3584 3186 3129 
Q 3597 2675 3597 1894 
z
M 3022 2063 
Q 3016 2534 2758 2815 
Q 2500 3097 2075 3097 
Q 1594 3097 1305 2825 
Q 1016 2553 972 2059 
L 3022 2063 
z
" transform="scale(0.015625)"/>
       <path id="DejaVuSans-73" d="M 2834 3397 
L 2834 2853 
Q 2591 2978 2328 3040 
Q 2066 3103 1784 3103 
Q 1356 3103 1142 2972 
Q 928 2841 928 2578 
Q 928 2378 1081 2264 
Q 1234 2150 1697 2047 
L 1894 2003 
Q 2506 1872 2764 1633 
Q 3022 1394 3022 966 
Q 3022 478 2636 193 
Q 2250 -91 1575 -91 
Q 1294 -91 989 -36 
Q 684 19 347 128 
L 347 722 
Q 666 556 975 473 
Q 1284 391 1588 391 
Q 1994 391 2212 530 
Q 2431 669 2431 922 
Q 2431 1156 2273 1281 
Q 2116 1406 1581 1522 
L 1381 1569 
Q 847 1681 609 1914 
Q 372 2147 372 2553 
Q 372 3047 722 3315 
Q 1072 3584 1716 3584 
Q 2034 3584 2315 3537 
Q 2597 3491 2834 3397 
z
" transform="scale(0.015625)"/>
       <path id="DejaVuSans-20" transform="scale(0.015625)"/>
       <path id="DejaVuSans-69" d="M 603 3500 
L 1178 3500 
L 1178 0 
L 603 0 
L 603 3500 
z
M 603 4863 
L 1178 4863 
L 1178 4134 
L 603 4134 
L 603 4863 
z
" transform="scale(0.015625)"/>
       <path id="DejaVuSans-e1" d="M 2194 1759 
Q 1497 1759 1228 1600 
Q 959 1441 959 1056 
Q 959 750 1161 570 
Q 1363 391 1709 391 
Q 2188 391 2477 730 
Q 2766 1069 2766 1631 
L 2766 1759 
L 2194 1759 
z
M 3341 1997 
L 3341 0 
L 2766 0 
L 2766 531 
Q 2569 213 2275 61 
Q 1981 -91 1556 -91 
Q 1019 -91 701 211 
Q 384 513 384 1019 
Q 384 1609 779 1909 
Q 1175 2209 1959 2209 
L 2766 2209 
L 2766 2266 
Q 2766 2663 2505 2880 
Q 2244 3097 1772 3097 
Q 1472 3097 1187 3025 
Q 903 2953 641 2809 
L 641 3341 
Q 956 3463 1253 3523 
Q 1550 3584 1831 3584 
Q 2591 3584 2966 3190 
Q 3341 2797 3341 1997 
z
M 2290 5119 
L 2912 5119 
L 1894 3944 
L 1415 3944 
L 2290 5119 
z
" transform="scale(0.015625)"/>
       <path id="DejaVuSans-28" d="M 1984 4856 
Q 1566 4138 1362 3434 
Q 1159 2731 1159 2009 
Q 1159 1288 1364 580 
Q 1569 -128 1984 -844 
L 1484 -844 
Q 1016 -109 783 600 
Q 550 1309 550 2009 
Q 550 2706 781 3412 
Q 1013 4119 1484 4856 
L 1984 4856 
z
" transform="scale(0.015625)"/>
       <path id="DejaVuSans-e9" d="M 3597 1894 
L 3597 1613 
L 953 1613 
Q 991 1019 1311 708 
Q 1631 397 2203 397 
Q 2534 397 2845 478 
Q 3156 559 3463 722 
L 3463 178 
Q 3153 47 2828 -22 
Q 2503 -91 2169 -91 
Q 1331 -91 842 396 
Q 353 884 353 1716 
Q 353 2575 817 3079 
Q 1281 3584 2069 3584 
Q 2775 3584 3186 3129 
Q 3597 2675 3597 1894 
z
M 3022 2063 
Q 3016 2534 2758 2815 
Q 2500 3097 2075 3097 
Q 1594 3097 1305 2825 
Q 1016 2553 972 2059 
L 3022 2063 
z
M 2466 5119 
L 3088 5119 
L 2070 3944 
L 1591 3944 
L 2466 5119 
z
" transform="scale(0.015625)"/>
       <path id="DejaVuSans-64" d="M 2906 2969 
L 2906 4863 
L 3481 4863 
L 3481 0 
L 2906 0 
L 2906 525 
Q 2725 213 2448 61 
Q 2172 -91 1784 -91 
Q 1150 -91 751 415 
Q 353 922 353 1747 
Q 353 2572 751 3078 
Q 1150 3584 1784 3584 
Q 2172 3584 2448 3432 
Q 2725 3281 2906 2969 
z
M 947 1747 
Q 947 1113 1208 752 
Q 1469 391 1925 391 
Q 2381 391 2643 752 
Q 2906 1113 2906 1747 
Q 2906 2381 2643 2742 
Q 2381 3103 1925 3103 
Q 1469 3103 1208 2742 
Q 947 2381 947 1747 
z
" transform="scale(0.015625)"/>
       <path id="DejaVuSans-f3" d="M 1959 3097 
Q 1497 3097 1228 2736 
Q 959 2375 959 1747 
Q 959 1119 1226 758 
Q 1494 397 1959 397 
Q 2419 397 2687 759 
Q 2956 1122 2956 1747 
Q 2956 2369 2687 2733 
Q 2419 3097 1959 3097 
z
M 1959 3584 
Q 2709 3584 3137 3096 
Q 3566 2609 3566 1747 
Q 3566 888 3137 398 
Q 2709 -91 1959 -91 
Q 1206 -91 779 398 
Q 353 888 353 1747 
Q 353 2609 779 3096 
Q 1206 3584 1959 3584 
z
M 2394 5119 
L 3016 5119 
L 1998 3944 
L 1519 3944 
L 2394 5119 
z
" transform="scale(0.015625)"/>
       <path id="DejaVuSans-76" d="M 191 3500 
L 800 3500 
L 1894 563 
L 2988 3500 
L 3597 3500 
L 2284 0 
L 1503 0 
L 191 3500 
z
" transform="scale(0.015625)"/>
       <path id="DejaVuSans-6c" d="M 603 4863 
L 1178 4863 
L 1178 0 
L 603 0 
L 603 4863 
z
" transform="scale(0.015625)"/>
       <path id="DejaVuSans-29" d="M 513 4856 
L 1013 4856 
Q 1481 4119 1714 3412 
Q 1947 2706 1947 2009 
Q 1947 1309 1714 600 
Q 1481 -109 1013 -844 
L 513 -844 
Q 928 -128 1133 580 
Q 1338 1288 1338 2009 
Q 1338 2731 1133 3434 
Q 928 4138 513 4856 
z
" transform="scale(0.015625)"/>
      </defs>
      <use xlink:href="#DejaVuSans-4d"/>
      <use xlink:href="#DejaVuSans-6f" transform="translate(86.279297 0)"/>
      <use xlink:href="#DejaVuSans-72" transform="translate(147.460938 0)"/>
      <use xlink:href="#DejaVuSans-74" transform="translate(188.574219 0)"/>
      <use xlink:href="#DejaVuSans-65" transform="translate(227.783203 0)"/>
      <use xlink:href="#DejaVuSans-73" transform="translate(289.306641 0)"/>
      <use xlink:href="#DejaVuSans-20" transform="translate(341.40625 0)"/>
      <use xlink:href="#DejaVuSans-44" transform="translate(373.193359 0)"/>
      <use xlink:href="#DejaVuSans-69" transform="translate(450.195312 0)"/>
      <use xlink:href="#DejaVuSans-e1" transform="translate(477.978516 0)"/>
      <use xlink:href="#DejaVuSans-72" transform="translate(539.257812 0)"/>
      <use xlink:href="#DejaVuSans-69" transform="translate(580.371094 0)"/>
      <use xlink:href="#DejaVuSans-61" transform="translate(608.154297 0)"/>
      <use xlink:href="#DejaVuSans-73" transform="translate(669.433594 0)"/>
      <use xlink:href="#DejaVuSans-20" transform="translate(721.533203 0)"/>
      <use xlink:href="#DejaVuSans-28" transform="translate(753.320312 0)"/>
      <use xlink:href="#DejaVuSans-4d" transform="translate(792.333984 0)"/>
      <use xlink:href="#DejaVuSans-e9" transform="translate(878.613281 0)"/>
      <use xlink:href="#DejaVuSans-64" transform="translate(940.136719 0)"/>
      <use xlink:href="#DejaVuSans-69" transform="translate(1003.613281 0)"/>
      <use xlink:href="#DejaVuSans-61" transform="translate(1031.396484 0)"/>
      <use xlink:href="#DejaVuSans-20" transform="translate(1092.675781 0)"/>
      <use xlink:href="#DejaVuSans-4d" transform="translate(1124.462891 0)"/>
      <use xlink:href="#DejaVuSans-f3" transform="translate(1210.742188 0)"/>
      <use xlink:href="#DejaVuSans-76" transform="translate(1271.923828 0)"/>
      <use xlink:href="#DejaVuSans-65" transform="translate(1331.103516 0)"/>
      <use xlink:href="#DejaVuSans-6c" transform="translate(1392.626953 0)"/>
      <use xlink:href="#DejaVuSans-20" transform="translate(1420.410156 0)"/>
      <use xlink:href="#DejaVuSans-31" transform="translate(1452.197266 0)"/>
      <use xlink:href="#DejaVuSans-34" transform="translate(1515.820312 0)"/>
      <use xlink:href="#DejaVuSans-64" transform="translate(1579.443359 0)"/>
      <use xlink:href="#DejaVuSans-29" transform="translate(1642.919922 0)"/>
     </g>
    </g>
   </g>
   <g id="line2d_29">
    <path d="M 102.352273 511.003636 
L 127.528365 510.959684 
L 129.495247 510.498188 
L 130.282 510.15756 
L 131.068753 509.751003 
L 131.855506 509.256543 
L 133.035635 507.762173 
L 133.429012 507.179809 
L 133.822388 506.377684 
L 134.215764 505.938164 
L 134.609141 505.300859 
L 135.395894 502.839545 
L 136.182647 500.411194 
L 136.576023 499.905746 
L 137.362776 498.158652 
L 138.936282 491.423002 
L 139.329658 489.961597 
L 140.116411 488.785879 
L 140.509788 488.214503 
L 140.903164 487.862887 
L 142.083293 479.226311 
L 142.47667 478.23739 
L 145.230305 460.865345 
L 145.623681 458.854539 
L 146.410434 449.141138 
L 146.803811 446.910572 
L 147.98394 434.988581 
L 148.377316 434.351276 
L 149.557446 422.088657 
L 150.344199 413.397141 
L 150.737575 411.089659 
L 151.130951 406.936191 
L 151.524328 400.574133 
L 151.917704 397.574406 
L 152.311081 391.223336 
L 153.097834 385.894151 
L 153.49121 384.169033 
L 153.884587 379.652961 
L 154.277963 377.916855 
L 155.458092 367.489234 
L 155.851469 365.950912 
L 156.244845 366.005852 
L 156.638222 366.566241 
L 157.031598 365.654236 
L 157.424974 360.588763 
L 157.818351 357.45718 
L 158.211727 357.413228 
L 158.605104 358.083497 
L 159.391857 360.896427 
L 160.17861 356.270475 
L 160.571986 355.35847 
L 160.965362 357.720892 
L 161.358739 358.424125 
L 161.752115 356.973708 
L 162.145492 356.929756 
L 162.538868 356.709995 
L 162.932245 357.589036 
L 163.325621 360.171219 
L 163.718998 357.962629 
L 164.50575 355.391434 
L 164.899127 355.666134 
L 165.292503 354.545357 
L 166.079256 356.600115 
L 166.472633 355.710087 
L 166.866009 353.325688 
L 167.259386 353.984969 
L 167.652762 353.270748 
L 168.046138 353.292724 
L 168.439515 355.830955 
L 168.832891 355.677122 
L 169.619644 353.995957 
L 170.406397 354.798082 
L 170.799773 356.116643 
L 171.19315 355.699098 
L 171.586526 354.831046 
L 171.979903 352.369731 
L 172.373279 352.787276 
L 172.766656 351.919223 
L 173.160032 351.468715 
L 173.553409 351.248954 
L 173.946785 349.106292 
L 174.340161 348.337132 
L 174.733538 349.732609 
L 175.126914 351.600571 
L 175.520291 350.347937 
L 175.913667 350.216081 
L 176.307044 348.974436 
L 176.70042 348.304168 
L 177.093797 347.304259 
L 177.487173 347.941563 
L 177.880549 346.403242 
L 178.273926 347.238331 
L 178.667302 348.545904 
L 179.060679 352.71036 
L 179.454055 348.7327 
L 179.847432 350.853386 
L 180.240808 350.314973 
L 180.634184 348.479976 
L 181.027561 350.402878 
L 181.420937 351.183026 
L 181.814314 353.523472 
L 182.20769 351.842307 
L 182.994443 353.501496 
L 183.38782 356.863828 
L 183.781196 356.677031 
L 184.174572 355.699098 
L 184.567949 351.820331 
L 184.961325 356.435295 
L 185.354702 354.97389 
L 185.748078 356.644067 
L 186.141455 360.808523 
L 186.534831 359.94047 
L 186.928208 358.588945 
L 187.321584 356.413319 
L 187.71496 358.885621 
L 188.501713 359.522926 
L 188.89509 359.66577 
L 189.288466 360.522835 
L 189.681843 362.03918 
L 190.075219 362.072144 
L 190.468596 363.061065 
L 191.255348 368.368274 
L 191.648725 365.63226 
L 192.042101 368.423214 
L 192.828854 371.368001 
L 193.222231 371.675666 
L 193.615607 375.741229 
L 194.008983 377.356467 
L 194.40236 379.663949 
L 194.795736 380.180385 
L 195.189113 382.982328 
L 195.582489 391.410132 
L 196.369242 391.531 
L 196.762619 391.322228 
L 197.155995 392.904501 
L 197.549371 392.366089 
L 197.942748 394.256027 
L 198.336124 395.376804 
L 198.729501 397.541442 
L 199.122877 397.596382 
L 199.516254 398.134794 
L 199.90963 397.508478 
L 200.303007 398.431471 
L 200.696383 397.695274 
L 201.089759 394.047255 
L 201.876512 397.980962 
L 202.269889 399.574224 
L 202.663265 398.969883 
L 203.450018 400.552157 
L 203.843395 403.299159 
L 204.236771 402.815687 
L 204.630147 403.925476 
L 205.4169 407.111999 
L 205.810277 407.090023 
L 206.203653 407.683375 
L 206.59703 407.870171 
L 207.383782 410.47433 
L 207.777159 410.990766 
L 208.170535 414.39705 
L 208.563912 414.89151 
L 208.957288 416.166119 
L 209.350665 422.253477 
L 209.744041 425.352096 
L 210.137418 425.516916 
L 210.530794 425.011468 
L 211.317547 428.011194 
L 211.710923 428.582571 
L 212.497676 432.164662 
L 212.891053 434.713881 
L 213.677806 437.329027 
L 214.071182 437.97732 
L 214.464558 437.296063 
L 214.857935 434.658941 
L 216.038064 442.185728 
L 216.824817 443.218601 
L 217.218194 444.229498 
L 217.61157 448.822486 
L 218.004946 448.339014 
L 218.398323 446.877608 
L 218.791699 450.086107 
L 219.185076 452.041973 
L 219.578452 453.173738 
L 219.971829 453.525354 
L 220.365205 457.349182 
L 220.758581 456.97559 
L 221.151958 452.635326 
L 221.545334 453.206702 
L 221.938711 447.558865 
L 222.332087 448.108265 
L 222.725464 447.701709 
L 223.11884 442.845008 
L 223.512217 441.240759 
L 223.905593 441.504471 
L 224.298969 438.504744 
L 224.692346 437.164207 
L 225.479099 435.65885 
L 225.872475 430.944993 
L 226.265852 429.736312 
L 226.659228 432.12071 
L 227.052605 431.483406 
L 227.445981 435.153401 
L 227.839357 433.702984 
L 228.232734 432.922835 
L 228.62611 432.790979 
L 229.019487 433.428284 
L 229.80624 430.230772 
L 230.199616 427.066226 
L 230.592993 425.758652 
L 230.986369 424.94554 
L 231.773122 420.616263 
L 232.166498 419.748211 
L 232.559875 418.012105 
L 232.953251 416.924292 
L 233.346628 416.847376 
L 233.740004 415.243126 
L 234.920133 405.991222 
L 235.31351 404.573768 
L 235.706886 404.112272 
L 236.100263 403.068411 
L 236.887016 400.024732 
L 237.280392 398.651231 
L 237.673768 398.475423 
L 238.067145 400.563145 
L 238.460521 404.727601 
L 238.853898 404.01338 
L 239.247274 404.035356 
L 239.640651 402.420118 
L 240.034027 399.585212 
L 240.427404 399.782996 
L 241.214156 408.056968 
L 241.607533 409.320589 
L 242.000909 409.144781 
L 242.394286 406.914215 
L 242.787662 403.826584 
L 243.181039 395.717432 
L 243.574415 390.443187 
L 243.967792 380.949546 
L 244.361168 379.576045 
L 244.754544 379.037632 
L 245.147921 379.04862 
L 245.934674 377.543263 
L 246.721427 361.885348 
L 247.114803 359.050442 
L 247.508179 360.050351 
L 247.901556 359.819602 
L 248.294932 358.742777 
L 248.688309 361.028284 
L 249.081685 359.55589 
L 249.475062 359.215262 
L 250.655191 355.105746 
L 251.048567 355.006854 
L 251.441944 352.204911 
L 251.83532 352.556528 
L 252.228697 350.040273 
L 252.622073 349.952369 
L 253.01545 348.381084 
L 253.408826 348.183299 
L 254.195579 350.051261 
L 254.588955 348.479976 
L 254.982332 350.94129 
L 255.375708 351.710451 
L 255.769085 351.611559 
L 256.162461 350.117189 
L 256.555838 349.600753 
L 256.949214 349.985333 
L 257.342591 348.128359 
L 257.735967 350.72153 
L 258.129343 349.029376 
L 258.52272 349.765573 
L 258.916096 350.238057 
L 259.309473 351.38081 
L 259.702849 349.897429 
L 260.096226 349.139256 
L 260.489602 346.568062 
L 261.276355 346.480158 
L 261.669731 346.084589 
L 262.063108 345.007764 
L 262.456484 342.920042 
L 262.849861 342.38163 
L 263.243237 338.612742 
L 263.636614 338.524838 
L 264.02999 335.777836 
L 264.423366 330.569519 
L 264.816743 322.218631 
L 265.210119 318.570612 
L 265.603496 313.164511 
L 265.996872 309.395623 
L 266.390249 303.253325 
L 266.783625 299.429498 
L 267.177002 292.990524 
L 268.357131 266.300647 
L 268.750507 259.586972 
L 269.143884 255.12584 
L 269.53726 252.060185 
L 269.930637 238.874573 
L 270.324013 230.765421 
L 271.504142 198.647467 
L 271.897519 196.405913 
L 272.290895 192.054661 
L 272.684272 178.000996 
L 273.077648 181.044674 
L 273.471025 175.067197 
L 274.257777 143.476667 
L 275.04453 131.038239 
L 275.437907 120.720498 
L 276.22466 95.821666 
L 276.618036 94.645949 
L 277.011413 99.601542 
L 277.798165 100.854175 
L 278.191542 90.481493 
L 278.978295 54.308963 
L 279.371671 53.836479 
L 279.765048 62.868623 
L 280.158424 61.253386 
L 280.551801 63.231228 
L 280.945177 62.923564 
L 281.338553 67.428648 
L 281.73193 69.725142 
L 282.125306 65.516734 
L 282.518683 55.166028 
L 282.912059 50.584028 
L 283.305436 50.276364 
L 283.698812 59.879885 
L 284.092188 63.802604 
L 284.485565 88.217963 
L 284.878941 96.777623 
L 285.272318 91.723139 
L 285.665694 97.195168 
L 286.059071 100.942079 
L 286.452447 108.875423 
L 286.845824 112.127874 
L 288.025953 129.071386 
L 288.812706 138.070566 
L 289.206082 141.97131 
L 289.599459 149.234385 
L 289.992835 143.487655 
L 290.779588 161.321196 
L 291.566341 167.155829 
L 292.353094 183.022516 
L 292.74647 189.813107 
L 293.139847 194.032503 
L 293.533223 200.284681 
L 294.319976 204.273328 
L 294.713352 209.250897 
L 295.500105 212.734096 
L 295.893482 212.184696 
L 296.286858 215.514063 
L 296.680235 217.316097 
L 297.073611 218.40391 
L 297.466987 219.920255 
L 297.860364 220.975104 
L 298.25374 222.491449 
L 298.647117 220.733368 
L 299.040493 221.557469 
L 299.43387 223.337526 
L 299.827246 222.524413 
L 300.613999 225.150548 
L 301.400752 241.434779 
L 301.794128 243.742261 
L 302.187505 243.599417 
L 302.974258 238.929513 
L 303.761011 232.512515 
L 304.154387 234.215656 
L 304.547763 233.940956 
L 304.94114 231.139014 
L 305.334516 231.501618 
L 305.727893 230.842337 
L 306.121269 225.458212 
L 306.514646 218.546754 
L 306.908022 207.108235 
L 307.301399 200.383573 
L 307.694775 198.713395 
L 308.481528 204.163448 
L 308.874904 207.80048 
L 309.268281 212.98682 
L 309.661657 215.349243 
L 310.44841 224.513243 
L 310.841786 226.809737 
L 311.235163 233.127843 
L 311.628539 243.192861 
L 312.021916 246.29148 
L 312.808669 260.619845 
L 313.202045 262.762507 
L 313.595422 263.487716 
L 313.988798 267.344508 
L 314.382174 275.519587 
L 315.562304 289.507324 
L 315.95568 291.089598 
L 316.349057 289.694121 
L 316.742433 292.858667 
L 317.529186 303.912606 
L 317.922562 308.318798 
L 318.315939 316.746602 
L 318.709315 315.450017 
L 319.102692 317.131182 
L 319.496068 321.042914 
L 320.676198 328.031289 
L 321.46295 330.404699 
L 321.856327 332.239696 
L 322.64308 337.557893 
L 323.036456 340.085136 
L 323.429833 345.502225 
L 323.823209 345.040728 
L 324.216585 350.358925 
L 324.609962 352.040091 
L 325.396715 357.138528 
L 326.183468 363.522562 
L 326.576844 364.819147 
L 326.970221 365.665224 
L 327.756973 368.840759 
L 328.15035 372.895335 
L 328.543726 374.763296 
L 328.937103 374.730332 
L 329.330479 374.554524 
L 329.723856 376.686198 
L 330.117232 376.191738 
L 331.297361 379.861733 
L 331.690738 381.905503 
L 332.084114 385.114002 
L 332.870867 386.992952 
L 333.264244 390.476151 
L 333.65762 391.267288 
L 334.837749 398.684195 
L 335.231126 398.376531 
L 335.624502 400.222516 
L 336.804632 409.111817 
L 337.198008 410.36445 
L 337.591384 410.430378 
L 337.984761 411.001754 
L 338.378137 412.529088 
L 339.16489 425.560868 
L 339.558267 427.395866 
L 339.951643 428.373799 
L 340.34502 428.066134 
L 340.738396 428.121075 
L 341.131772 428.681463 
L 341.525149 429.868168 
L 341.918525 429.175924 
L 342.311902 430.505473 
L 342.705278 435.153401 
L 343.098655 432.483315 
L 343.492031 432.725051 
L 343.885408 432.494303 
L 344.278784 431.131789 
L 344.67216 424.253295 
L 345.065537 425.407036 
L 345.458913 425.11036 
L 345.85229 427.033261 
L 346.245666 427.582662 
L 346.639043 427.637602 
L 347.032419 426.956345 
L 347.425796 428.318859 
L 347.819172 428.494667 
L 348.212548 426.923381 
L 348.605925 431.725142 
L 348.999301 431.933914 
L 349.392678 431.922926 
L 349.786054 429.813228 
L 350.179431 433.61508 
L 350.572807 435.779718 
L 350.966183 436.702711 
L 351.35956 438.164116 
L 351.752936 438.834385 
L 352.146313 438.922289 
L 352.933066 451.097004 
L 353.326442 452.217781 
L 353.719819 451.184908 
L 354.113195 451.349728 
L 354.506571 452.393589 
L 354.899948 452.624338 
L 355.293324 455.777896 
L 355.686701 457.503014 
L 356.080077 457.503014 
L 356.473454 459.206156 
L 356.86683 460.151125 
L 357.260207 460.096185 
L 357.653583 460.557681 
L 358.440336 454.909844 
L 358.833712 456.404213 
L 359.227089 458.338103 
L 359.620465 461.096093 
L 360.013842 461.096093 
L 360.407218 462.030074 
L 361.193971 466.974679 
L 361.587347 467.139499 
L 361.980724 467.919648 
L 362.3741 467.809768 
L 362.767477 469.216233 
L 363.160853 469.589825 
L 363.55423 472.43572 
L 363.947606 474.116886 
L 364.340982 476.325476 
L 364.734359 477.720953 
L 365.127735 472.237936 
L 365.521112 472.996109 
L 365.914488 473.380689 
L 366.307865 473.567485 
L 366.701241 471.270991 
L 367.88137 475.852991 
L 368.274747 475.710147 
L 368.668123 475.743111 
L 369.0615 474.633322 
L 369.454876 474.710238 
L 369.848253 473.446617 
L 370.241629 472.919193 
L 370.635006 478.435174 
L 371.421758 477.709965 
L 371.815135 475.809039 
L 372.601888 477.655025 
L 372.995264 477.709965 
L 373.388641 478.226402 
L 374.175393 478.45715 
L 374.56877 478.56703 
L 374.962146 479.00655 
L 375.748899 480.962416 
L 376.142276 482.896306 
L 376.535652 482.962234 
L 376.929029 483.511635 
L 377.322405 485.852081 
L 377.715781 485.654297 
L 378.109158 486.654205 
L 379.289287 487.192618 
L 379.682664 487.610162 
L 380.07604 489.796776 
L 380.862793 491.54387 
L 381.649546 492.895395 
L 382.042922 493.225036 
L 382.436299 492.807491 
L 382.829675 491.939438 
L 383.223052 494.016172 
L 383.616428 493.543688 
L 384.403181 496.158834 
L 384.796557 496.389583 
L 385.189934 496.323655 
L 385.58331 495.224854 
L 386.370063 495.477578 
L 386.76344 495.290782 
L 387.156816 494.02716 
L 387.550192 494.159017 
L 387.943569 493.895304 
L 388.336945 494.159017 
L 388.730322 493.928268 
L 389.123698 493.851352 
L 389.517075 491.884498 
L 389.910451 490.500009 
L 390.697204 489.5001 
L 391.483957 485.269716 
L 392.27071 480.8855 
L 392.664086 479.533975 
L 393.057463 476.764996 
L 393.450839 475.127783 
L 393.844216 471.391859 
L 394.630968 461.11807 
L 395.417721 449.987215 
L 395.811098 447.174284 
L 396.204474 445.383239 
L 397.384604 425.341108 
L 397.77798 423.857727 
L 398.171356 412.100555 
L 398.564733 411.056694 
L 398.958109 409.199721 
L 399.744862 393.860458 
L 400.924991 384.377805 
L 401.318368 384.553614 
L 401.711744 382.47688 
L 402.105121 383.30098 
L 402.498497 381.191282 
L 402.891874 380.235326 
L 403.28525 373.268927 
L 403.678627 378.290448 
L 404.072003 378.125628 
L 404.465379 379.334309 
L 404.858756 383.432837 
L 405.252132 386.344659 
L 405.645509 386.036995 
L 406.038885 398.508387 
L 406.432262 391.618904 
L 406.825638 392.640789 
L 407.219015 395.651504 
L 407.612391 401.771826 
L 408.399144 415.671659 
L 408.79252 420.616263 
L 409.97265 425.989401 
L 411.152779 437.427919 
L 411.546155 432.263554 
L 411.939532 444.723958 
L 412.332908 445.690903 
L 412.726285 445.998567 
L 413.119661 445.570035 
L 413.513038 445.734855 
L 413.906414 446.75674 
L 414.693167 454.140683 
L 415.873296 457.52499 
L 416.660049 464.590281 
L 417.053426 466.941715 
L 417.446802 471.216051 
L 417.840178 469.238209 
L 418.233555 470.271082 
L 418.626931 470.831471 
L 419.020308 471.842368 
L 419.413684 474.391586 
L 419.807061 475.798051 
L 420.200437 477.973677 
L 420.593814 478.67691 
L 420.98719 477.929725 
L 421.380566 479.885591 
L 421.773943 481.061308 
L 422.167319 481.742565 
L 422.560696 482.918282 
L 422.954072 481.841457 
L 423.347449 484.86316 
L 423.740825 484.951064 
L 425.314331 490.071477 
L 425.707707 490.895577 
L 426.101084 491.082374 
L 426.887837 493.170096 
L 427.281213 492.422911 
L 427.674589 494.159017 
L 428.067966 495.235842 
L 428.461342 495.730302 
L 429.248095 495.675362 
L 429.641472 495.917098 
L 430.034848 495.016081 
L 430.428225 495.30177 
L 431.214977 493.873328 
L 431.608354 493.939256 
L 432.00173 493.686532 
L 432.395107 494.049136 
L 432.788483 496.224762 
L 433.18186 495.730302 
L 433.575236 494.148029 
L 434.755365 494.851261 
L 435.148742 494.257909 
L 435.542118 495.565482 
L 435.935495 495.444614 
L 436.328871 495.950062 
L 436.722248 495.895122 
L 437.115624 495.565482 
L 437.509001 495.785242 
L 437.902377 494.279885 
L 438.295753 493.86234 
L 438.68913 494.115065 
L 439.082506 495.598446 
L 439.475883 495.598446 
L 439.869259 494.653477 
L 440.262636 494.807309 
L 440.656012 494.356801 
L 441.049388 494.290873 
L 441.442765 494.093088 
L 441.836141 494.093088 
L 442.229518 494.312849 
L 442.622894 494.137041 
L 443.016271 494.202969 
L 443.409647 494.961141 
L 444.1964 494.576561 
L 444.983153 494.862249 
L 445.376529 495.862158 
L 445.769906 495.895122 
L 446.163282 495.147937 
L 446.556659 493.31294 
L 446.950035 493.31294 
L 447.736788 492.510815 
L 448.130164 492.796503 
L 448.916917 492.565755 
L 449.310294 490.214321 
L 450.097047 489.631956 
L 450.8838 488.368335 
L 451.277176 487.709054 
L 451.670552 488.566119 
L 452.063929 490.313213 
L 452.850682 486.071841 
L 453.244058 485.786153 
L 453.637435 485.786153 
L 454.030811 485.159836 
L 454.424187 483.599539 
L 454.817564 484.280795 
L 455.21094 482.742474 
L 455.604317 480.413016 
L 455.997693 479.709783 
L 456.39107 479.731759 
L 456.784446 479.446071 
L 457.177823 477.611073 
L 457.571199 475.182723 
L 458.357952 476.830924 
L 458.751328 476.006823 
L 459.144705 476.402392 
L 459.538081 475.556315 
L 459.931458 475.248651 
L 460.324834 474.116886 
L 460.718211 474.050958 
L 461.111587 473.754281 
L 461.504963 473.237845 
L 461.89834 473.215869 
L 462.291716 472.71042 
L 462.685093 473.182905 
L 463.471846 473.501557 
L 463.865222 476.424368 
L 464.258599 473.941078 
L 464.651975 473.534521 
L 465.045351 473.809221 
L 465.438728 473.732305 
L 465.832104 474.501466 
L 466.225481 474.853082 
L 466.618857 475.589279 
L 467.40561 476.237572 
L 467.798986 475.874967 
L 468.192363 476.512272 
L 468.585739 477.402301 
L 468.979116 477.490205 
L 469.372492 475.050867 
L 469.765869 477.907749 
L 470.159245 477.687989 
L 470.552622 477.786881 
L 470.945998 477.633049 
L 471.732751 478.73185 
L 472.126127 478.698886 
L 472.519504 478.984574 
L 472.91288 478.885682 
L 473.699633 480.753644 
L 474.09301 480.951428 
L 474.486386 481.555769 
L 474.879762 482.43481 
L 475.273139 482.841366 
L 475.666515 482.951246 
L 476.059892 483.478671 
L 476.453268 485.258728 
L 477.240021 486.533337 
L 478.026774 488.236479 
L 478.42015 488.401299 
L 478.813527 488.313395 
L 479.206903 488.060671 
L 479.60028 489.522076 
L 480.387033 490.082465 
L 480.780409 490.653841 
L 481.173785 490.390129 
L 481.567162 491.730666 
L 481.960538 492.258091 
L 482.353915 493.851352 
L 483.140668 495.444614 
L 483.927421 496.07093 
L 484.320797 496.982935 
L 484.714173 498.356436 
L 485.10755 498.301496 
L 485.500926 499.400297 
L 485.894303 499.598082 
L 486.287679 500.235386 
L 486.681056 500.554039 
L 487.074432 499.982662 
L 487.467809 500.696883 
L 487.861185 500.37823 
L 489.041314 500.795775 
L 489.434691 500.543051 
L 489.828067 500.707871 
L 491.008196 502.487928 
L 491.401573 502.916461 
L 491.794949 500.894667 
L 492.188326 500.630955 
L 492.975079 500.608979 
L 493.368455 500.356254 
L 493.761832 499.696974 
L 494.155208 499.433261 
L 494.548584 499.356345 
L 495.335337 499.55413 
L 495.728714 499.114609 
L 496.12209 498.927813 
L 496.515467 499.015717 
L 496.908843 498.828921 
L 497.30222 501.125415 
L 497.695596 501.828648 
L 498.088972 501.422091 
L 498.482349 501.531971 
L 498.875725 501.004547 
L 499.269102 502.465952 
L 499.662478 503.048317 
L 500.449231 503.059305 
L 500.842608 502.334096 
L 501.235984 502.795593 
L 501.62936 501.323199 
L 502.022737 501.191343 
L 502.416113 500.718859 
L 503.202866 500.707871 
L 503.989619 501.191343 
L 504.382995 502.817569 
L 504.776372 502.389036 
L 505.169748 502.158288 
L 505.563125 502.47694 
L 505.956501 502.498916 
L 506.349878 502.993377 
L 506.743254 502.465952 
L 507.136631 503.75155 
L 507.530007 503.91637 
L 507.923383 504.674542 
L 508.31676 504.795411 
L 508.710136 504.784423 
L 509.103513 505.103075 
L 509.496889 505.696427 
L 509.890266 505.114063 
L 510.283642 504.762447 
L 511.463771 504.63059 
L 511.857148 503.927358 
L 512.250524 503.663645 
L 513.430654 502.36706 
L 513.82403 502.36706 
L 514.610783 501.751732 
L 515.004159 500.422182 
L 516.184289 498.180628 
L 516.577665 497.938892 
L 516.971042 497.861976 
L 517.364418 497.927904 
L 518.151171 496.664283 
L 518.544547 496.323655 
L 518.937924 497.433444 
L 519.3313 496.664283 
L 519.724677 496.993923 
L 520.118053 494.752369 
L 520.51143 496.169822 
L 520.904806 492.895395 
L 521.298182 492.247103 
L 522.084935 491.730666 
L 522.478312 491.675726 
L 523.265065 490.445069 
L 523.658441 490.302225 
L 524.445194 488.302407 
L 524.83857 489.071568 
L 525.231947 489.148484 
L 525.625323 489.533064 
L 526.0187 487.005822 
L 526.412076 487.785971 
L 527.198829 488.555131 
L 527.592206 489.137496 
L 528.378958 489.686896 
L 528.772335 489.994561 
L 529.165711 489.577016 
L 529.559088 489.939621 
L 529.952464 488.632047 
L 530.345841 488.335371 
L 530.739217 488.214503 
L 531.52597 491.37905 
L 531.919346 494.235933 
L 532.312723 494.499645 
L 532.706099 495.807218 
L 533.099476 494.686441 
L 533.492852 494.631501 
L 533.886229 495.30177 
L 534.279605 496.367607 
L 534.672981 497.774072 
L 535.066358 494.323837 
L 535.459734 495.52153 
L 535.853111 495.092997 
L 536.639864 495.345722 
L 537.03324 494.521621 
L 537.426617 494.356801 
L 537.819993 494.961141 
L 538.213369 494.455693 
L 538.606746 495.41165 
L 539.000122 495.444614 
L 539.786875 493.97222 
L 540.180252 493.58764 
L 540.573628 498.246556 
L 540.967005 498.290508 
L 541.360381 498.850897 
L 542.147134 498.949789 
L 542.54051 499.488202 
L 543.327263 500.850715 
L 544.507392 500.949607 
L 544.900769 501.444067 
L 545.294145 503.443885 
L 545.687522 503.377957 
L 546.080898 502.58682 
L 546.474275 503.290053 
L 547.261028 503.366969 
L 548.04778 505.114063 
L 548.441157 502.235204 
L 548.834533 497.664192 
L 549.22791 497.092815 
L 550.014663 497.015899 
L 550.408039 497.334552 
L 550.801416 496.444523 
L 551.194792 496.686259 
L 551.588168 497.499372 
L 551.981545 497.499372 
L 552.374921 497.224671 
L 553.161674 497.246647 
L 553.555051 497.367516 
L 553.948427 500.795775 
L 554.341804 505.773343 
L 554.73518 506.806216 
L 555.128556 503.443885 
L 555.521933 503.454873 
L 555.915309 504.103166 
L 556.308686 504.993195 
L 556.702062 506.201876 
L 557.488815 507.069929 
L 557.882191 504.333914 
L 560.24245 504.333914 
L 560.635827 507.894029 
L 561.422579 507.894029 
L 561.815956 504.35589 
L 562.996085 504.35589 
L 563.389462 507.465497 
L 565.356344 507.465497 
L 565.74972 503.982298 
L 566.92985 503.982298 
L 567.323226 507.520437 
L 568.109979 507.520437 
L 568.503355 504.718494 
L 570.863614 504.718494 
L 571.25699 503.762538 
L 573.617249 503.762538 
L 574.010626 503.498825 
L 576.370884 503.498825 
L 576.764261 504.213046 
L 581.878154 504.169094 
L 582.271531 507.894029 
L 584.631789 507.894029 
L 585.025166 511.003636 
L 813.970255 511.003636 
L 814.363631 510.113608 
L 816.72389 510.113608 
L 817.117266 509.014806 
L 822.23116 508.99283 
L 822.624536 509.289507 
L 824.984795 509.289507 
L 825.378171 509.575195 
L 827.73843 509.575195 
L 828.131806 509.729027 
L 838.75297 509.718039 
L 839.146347 509.904835 
L 841.506605 509.904835 
L 841.899982 510.2125 
L 844.260241 510.2125 
L 844.653617 510.454236 
L 847.013876 510.454236 
L 847.407252 510.59708 
L 860.782051 510.695972 
L 861.96218 510.739924 
L 866.289321 510.684984 
L 867.076074 510.586092 
L 871.796591 510.65202 
L 872.583344 510.7619 
L 893.825672 510.717948 
L 894.219049 510.575104 
L 899.332942 510.498188 
L 899.726319 510.366332 
L 902.086577 510.366332 
L 902.479954 510.15756 
L 918.608388 510.26744 
L 919.395141 510.355344 
L 929.622928 510.465224 
L 930.409681 510.575104 
L 937.883834 510.59708 
L 938.27721 510.805852 
L 940.637469 510.805852 
L 941.030845 510.948696 
L 942.997727 510.948696 
L 942.997727 510.948696 
" clip-path="url(#pc2cdb94568)" style="fill: none; stroke: #ff0000; stroke-width: 2; stroke-linecap: square"/>
   </g>
   <g id="patch_3">
    <path d="M 60.32 534.04 
L 60.32 27.24 
" style="fill: none; stroke: #000000; stroke-width: 0.8; stroke-linejoin: miter; stroke-linecap: square"/>
   </g>
   <g id="patch_4">
    <path d="M 985.03 534.04 
L 985.03 27.24 
" style="fill: none; stroke: #000000; stroke-width: 0.8; stroke-linejoin: miter; stroke-linecap: square"/>
   </g>
   <g id="patch_5">
    <path d="M 60.32 534.04 
L 985.03 534.04 
" style="fill: none; stroke: #000000; stroke-width: 0.8; stroke-linejoin: miter; stroke-linecap: square"/>
   </g>
   <g id="patch_6">
    <path d="M 60.32 27.24 
L 985.03 27.24 
" style="fill: none; stroke: #000000; stroke-width: 0.8; stroke-linejoin: miter; stroke-linecap: square"/>
   </g>
   <g id="legend_1">
    <g id="patch_7">
     <path d="M 67.32 64.59625 
L 188.70125 64.59625 
Q 190.70125 64.59625 190.70125 62.59625 
L 190.70125 34.24 
Q 190.70125 32.24 188.70125 32.24 
L 67.32 32.24 
Q 65.32 32.24 65.32 34.24 
L 65.32 62.59625 
Q 65.32 64.59625 67.32 64.59625 
z
" style="fill: #ffffff; opacity: 0.8; stroke: #cccccc; stroke-linejoin: miter"/>
    </g>
    <g id="line2d_30">
     <path d="M 69.32 40.338438 
L 79.32 40.338438 
L 89.32 40.338438 
" style="fill: none; stroke: #ff0000; stroke-width: 2; stroke-linecap: square"/>
    </g>
    <g id="text_17">
     <!-- Mortes Diárias -->
     <g transform="translate(97.32 43.838438) scale(0.1 -0.1)">
      <use xlink:href="#DejaVuSans-4d"/>
      <use xlink:href="#DejaVuSans-6f" transform="translate(86.279297 0)"/>
      <use xlink:href="#DejaVuSans-72" transform="translate(147.460938 0)"/>
      <use xlink:href="#DejaVuSans-74" transform="translate(188.574219 0)"/>
      <use xlink:href="#DejaVuSans-65" transform="translate(227.783203 0)"/>
      <use xlink:href="#DejaVuSans-73" transform="translate(289.306641 0)"/>
      <use xlink:href="#DejaVuSans-20" transform="translate(341.40625 0)"/>
      <use xlink:href="#DejaVuSans-44" transform="translate(373.193359 0)"/>
      <use xlink:href="#DejaVuSans-69" transform="translate(450.195312 0)"/>
      <use xlink:href="#DejaVuSans-e1" transform="translate(477.978516 0)"/>
      <use xlink:href="#DejaVuSans-72" transform="translate(539.257812 0)"/>
      <use xlink:href="#DejaVuSans-69" transform="translate(580.371094 0)"/>
      <use xlink:href="#DejaVuSans-61" transform="translate(608.154297 0)"/>
      <use xlink:href="#DejaVuSans-73" transform="translate(669.433594 0)"/>
     </g>
    </g>
    <g id="line2d_31">
     <path d="M 69.32 55.016563 
L 79.32 55.016563 
L 89.32 55.016563 
" style="fill: none; stroke: #1f77b4; stroke-width: 3; stroke-linecap: square"/>
    </g>
    <g id="text_18">
     <!-- Vacinas Aplicadas -->
     <g transform="translate(97.32 58.516563) scale(0.1 -0.1)">
      <defs>
       <path id="DejaVuSans-56" d="M 1831 0 
L 50 4666 
L 709 4666 
L 2188 738 
L 3669 4666 
L 4325 4666 
L 2547 0 
L 1831 0 
z
" transform="scale(0.015625)"/>
       <path id="DejaVuSans-63" d="M 3122 3366 
L 3122 2828 
Q 2878 2963 2633 3030 
Q 2388 3097 2138 3097 
Q 1578 3097 1268 2742 
Q 959 2388 959 1747 
Q 959 1106 1268 751 
Q 1578 397 2138 397 
Q 2388 397 2633 464 
Q 2878 531 3122 666 
L 3122 134 
Q 2881 22 2623 -34 
Q 2366 -91 2075 -91 
Q 1284 -91 818 406 
Q 353 903 353 1747 
Q 353 2603 823 3093 
Q 1294 3584 2113 3584 
Q 2378 3584 2631 3529 
Q 2884 3475 3122 3366 
z
" transform="scale(0.015625)"/>
       <path id="DejaVuSans-6e" d="M 3513 2113 
L 3513 0 
L 2938 0 
L 2938 2094 
Q 2938 2591 2744 2837 
Q 2550 3084 2163 3084 
Q 1697 3084 1428 2787 
Q 1159 2491 1159 1978 
L 1159 0 
L 581 0 
L 581 3500 
L 1159 3500 
L 1159 2956 
Q 1366 3272 1645 3428 
Q 1925 3584 2291 3584 
Q 2894 3584 3203 3211 
Q 3513 2838 3513 2113 
z
" transform="scale(0.015625)"/>
       <path id="DejaVuSans-41" d="M 2188 4044 
L 1331 1722 
L 3047 1722 
L 2188 4044 
z
M 1831 4666 
L 2547 4666 
L 4325 0 
L 3669 0 
L 3244 1197 
L 1141 1197 
L 716 0 
L 50 0 
L 1831 4666 
z
" transform="scale(0.015625)"/>
       <path id="DejaVuSans-70" d="M 1159 525 
L 1159 -1331 
L 581 -1331 
L 581 3500 
L 1159 3500 
L 1159 2969 
Q 1341 3281 1617 3432 
Q 1894 3584 2278 3584 
Q 2916 3584 3314 3078 
Q 3713 2572 3713 1747 
Q 3713 922 3314 415 
Q 2916 -91 2278 -91 
Q 1894 -91 1617 61 
Q 1341 213 1159 525 
z
M 3116 1747 
Q 3116 2381 2855 2742 
Q 2594 3103 2138 3103 
Q 1681 3103 1420 2742 
Q 1159 2381 1159 1747 
Q 1159 1113 1420 752 
Q 1681 391 2138 391 
Q 2594 391 2855 752 
Q 3116 1113 3116 1747 
z
" transform="scale(0.015625)"/>
      </defs>
      <use xlink:href="#DejaVuSans-56"/>
      <use xlink:href="#DejaVuSans-61" transform="translate(60.658203 0)"/>
      <use xlink:href="#DejaVuSans-63" transform="translate(121.9375 0)"/>
      <use xlink:href="#DejaVuSans-69" transform="translate(176.917969 0)"/>
      <use xlink:href="#DejaVuSans-6e" transform="translate(204.701172 0)"/>
      <use xlink:href="#DejaVuSans-61" transform="translate(268.080078 0)"/>
      <use xlink:href="#DejaVuSans-73" transform="translate(329.359375 0)"/>
      <use xlink:href="#DejaVuSans-20" transform="translate(381.458984 0)"/>
      <use xlink:href="#DejaVuSans-41" transform="translate(413.246094 0)"/>
      <use xlink:href="#DejaVuSans-70" transform="translate(481.654297 0)"/>
      <use xlink:href="#DejaVuSans-6c" transform="translate(545.130859 0)"/>
      <use xlink:href="#DejaVuSans-69" transform="translate(572.914062 0)"/>
      <use xlink:href="#DejaVuSans-63" transform="translate(600.697266 0)"/>
      <use xlink:href="#DejaVuSans-61" transform="translate(655.677734 0)"/>
      <use xlink:href="#DejaVuSans-64" transform="translate(716.957031 0)"/>
      <use xlink:href="#DejaVuSans-61" transform="translate(780.433594 0)"/>
      <use xlink:href="#DejaVuSans-73" transform="translate(841.712891 0)"/>
     </g>
    </g>
   </g>
  </g>
  <g id="axes_2">
   <g id="matplotlib.axis_3">
    <g id="ytick_8">
     <g id="line2d_32">
      <defs>
       <path id="m72d0083520" d="M 0 0 
L 3.5 0 
" style="stroke: #000000; stroke-width: 0.8"/>
      </defs>
      <g>
       <use xlink:href="#m72d0083520" x="985.03" y="511.003742" style="stroke: #000000; stroke-width: 0.8"/>
      </g>
     </g>
     <g id="text_19">
      <!-- 0 -->
      <g style="fill: #1f77b4" transform="translate(992.03 514.802961) scale(0.1 -0.1)">
       <use xlink:href="#DejaVuSans-30"/>
      </g>
     </g>
    </g>
    <g id="ytick_9">
     <g id="line2d_33">
      <g>
       <use xlink:href="#m72d0083520" x="985.03" y="416.288926" style="stroke: #000000; stroke-width: 0.8"/>
      </g>
     </g>
     <g id="text_20">
      <!-- 100,000,000 -->
      <g style="fill: #1f77b4" transform="translate(992.03 420.088144) scale(0.1 -0.1)">
       <use xlink:href="#DejaVuSans-31"/>
       <use xlink:href="#DejaVuSans-30" transform="translate(63.623047 0)"/>
       <use xlink:href="#DejaVuSans-30" transform="translate(127.246094 0)"/>
       <use xlink:href="#DejaVuSans-2c" transform="translate(190.869141 0)"/>
       <use xlink:href="#DejaVuSans-30" transform="translate(222.65625 0)"/>
       <use xlink:href="#DejaVuSans-30" transform="translate(286.279297 0)"/>
       <use xlink:href="#DejaVuSans-30" transform="translate(349.902344 0)"/>
       <use xlink:href="#DejaVuSans-2c" transform="translate(413.525391 0)"/>
       <use xlink:href="#DejaVuSans-30" transform="translate(445.3125 0)"/>
       <use xlink:href="#DejaVuSans-30" transform="translate(508.935547 0)"/>
       <use xlink:href="#DejaVuSans-30" transform="translate(572.558594 0)"/>
      </g>
     </g>
    </g>
    <g id="ytick_10">
     <g id="line2d_34">
      <g>
       <use xlink:href="#m72d0083520" x="985.03" y="321.574109" style="stroke: #000000; stroke-width: 0.8"/>
      </g>
     </g>
     <g id="text_21">
      <!-- 200,000,000 -->
      <g style="fill: #1f77b4" transform="translate(992.03 325.373328) scale(0.1 -0.1)">
       <use xlink:href="#DejaVuSans-32"/>
       <use xlink:href="#DejaVuSans-30" transform="translate(63.623047 0)"/>
       <use xlink:href="#DejaVuSans-30" transform="translate(127.246094 0)"/>
       <use xlink:href="#DejaVuSans-2c" transform="translate(190.869141 0)"/>
       <use xlink:href="#DejaVuSans-30" transform="translate(222.65625 0)"/>
       <use xlink:href="#DejaVuSans-30" transform="translate(286.279297 0)"/>
       <use xlink:href="#DejaVuSans-30" transform="translate(349.902344 0)"/>
       <use xlink:href="#DejaVuSans-2c" transform="translate(413.525391 0)"/>
       <use xlink:href="#DejaVuSans-30" transform="translate(445.3125 0)"/>
       <use xlink:href="#DejaVuSans-30" transform="translate(508.935547 0)"/>
       <use xlink:href="#DejaVuSans-30" transform="translate(572.558594 0)"/>
      </g>
     </g>
    </g>
    <g id="ytick_11">
     <g id="line2d_35">
      <g>
       <use xlink:href="#m72d0083520" x="985.03" y="226.859292" style="stroke: #000000; stroke-width: 0.8"/>
      </g>
     </g>
     <g id="text_22">
      <!-- 300,000,000 -->
      <g style="fill: #1f77b4" transform="translate(992.03 230.658511) scale(0.1 -0.1)">
       <use xlink:href="#DejaVuSans-33"/>
       <use xlink:href="#DejaVuSans-30" transform="translate(63.623047 0)"/>
       <use xlink:href="#DejaVuSans-30" transform="translate(127.246094 0)"/>
       <use xlink:href="#DejaVuSans-2c" transform="translate(190.869141 0)"/>
       <use xlink:href="#DejaVuSans-30" transform="translate(222.65625 0)"/>
       <use xlink:href="#DejaVuSans-30" transform="translate(286.279297 0)"/>
       <use xlink:href="#DejaVuSans-30" transform="translate(349.902344 0)"/>
       <use xlink:href="#DejaVuSans-2c" transform="translate(413.525391 0)"/>
       <use xlink:href="#DejaVuSans-30" transform="translate(445.3125 0)"/>
       <use xlink:href="#DejaVuSans-30" transform="translate(508.935547 0)"/>
       <use xlink:href="#DejaVuSans-30" transform="translate(572.558594 0)"/>
      </g>
     </g>
    </g>
    <g id="ytick_12">
     <g id="line2d_36">
      <g>
       <use xlink:href="#m72d0083520" x="985.03" y="132.144476" style="stroke: #000000; stroke-width: 0.8"/>
      </g>
     </g>
     <g id="text_23">
      <!-- 400,000,000 -->
      <g style="fill: #1f77b4" transform="translate(992.03 135.943694) scale(0.1 -0.1)">
       <use xlink:href="#DejaVuSans-34"/>
       <use xlink:href="#DejaVuSans-30" transform="translate(63.623047 0)"/>
       <use xlink:href="#DejaVuSans-30" transform="translate(127.246094 0)"/>
       <use xlink:href="#DejaVuSans-2c" transform="translate(190.869141 0)"/>
       <use xlink:href="#DejaVuSans-30" transform="translate(222.65625 0)"/>
       <use xlink:href="#DejaVuSans-30" transform="translate(286.279297 0)"/>
       <use xlink:href="#DejaVuSans-30" transform="translate(349.902344 0)"/>
       <use xlink:href="#DejaVuSans-2c" transform="translate(413.525391 0)"/>
       <use xlink:href="#DejaVuSans-30" transform="translate(445.3125 0)"/>
       <use xlink:href="#DejaVuSans-30" transform="translate(508.935547 0)"/>
       <use xlink:href="#DejaVuSans-30" transform="translate(572.558594 0)"/>
      </g>
     </g>
    </g>
    <g id="ytick_13">
     <g id="line2d_37">
      <g>
       <use xlink:href="#m72d0083520" x="985.03" y="37.429659" style="stroke: #000000; stroke-width: 0.8"/>
      </g>
     </g>
     <g id="text_24">
      <!-- 500,000,000 -->
      <g style="fill: #1f77b4" transform="translate(992.03 41.228878) scale(0.1 -0.1)">
       <use xlink:href="#DejaVuSans-35"/>
       <use xlink:href="#DejaVuSans-30" transform="translate(63.623047 0)"/>
       <use xlink:href="#DejaVuSans-30" transform="translate(127.246094 0)"/>
       <use xlink:href="#DejaVuSans-2c" transform="translate(190.869141 0)"/>
       <use xlink:href="#DejaVuSans-30" transform="translate(222.65625 0)"/>
       <use xlink:href="#DejaVuSans-30" transform="translate(286.279297 0)"/>
       <use xlink:href="#DejaVuSans-30" transform="translate(349.902344 0)"/>
       <use xlink:href="#DejaVuSans-2c" transform="translate(413.525391 0)"/>
       <use xlink:href="#DejaVuSans-30" transform="translate(445.3125 0)"/>
       <use xlink:href="#DejaVuSans-30" transform="translate(508.935547 0)"/>
       <use xlink:href="#DejaVuSans-30" transform="translate(572.558594 0)"/>
      </g>
     </g>
    </g>
    <g id="text_25">
     <!-- Total de Vacinas Aplicadas -->
     <g style="fill: #1f77b4" transform="translate(1067.247188 346.436094) rotate(-90) scale(0.1 -0.1)">
      <defs>
       <path id="DejaVuSans-54" d="M -19 4666 
L 3928 4666 
L 3928 4134 
L 2272 4134 
L 2272 0 
L 1638 0 
L 1638 4134 
L -19 4134 
L -19 4666 
z
" transform="scale(0.015625)"/>
      </defs>
      <use xlink:href="#DejaVuSans-54"/>
      <use xlink:href="#DejaVuSans-6f" transform="translate(44.083984 0)"/>
      <use xlink:href="#DejaVuSans-74" transform="translate(105.265625 0)"/>
      <use xlink:href="#DejaVuSans-61" transform="translate(144.474609 0)"/>
      <use xlink:href="#DejaVuSans-6c" transform="translate(205.753906 0)"/>
      <use xlink:href="#DejaVuSans-20" transform="translate(233.537109 0)"/>
      <use xlink:href="#DejaVuSans-64" transform="translate(265.324219 0)"/>
      <use xlink:href="#DejaVuSans-65" transform="translate(328.800781 0)"/>
      <use xlink:href="#DejaVuSans-20" transform="translate(390.324219 0)"/>
      <use xlink:href="#DejaVuSans-56" transform="translate(422.111328 0)"/>
      <use xlink:href="#DejaVuSans-61" transform="translate(482.769531 0)"/>
      <use xlink:href="#DejaVuSans-63" transform="translate(544.048828 0)"/>
      <use xlink:href="#DejaVuSans-69" transform="translate(599.029297 0)"/>
      <use xlink:href="#DejaVuSans-6e" transform="translate(626.8125 0)"/>
      <use xlink:href="#DejaVuSans-61" transform="translate(690.191406 0)"/>
      <use xlink:href="#DejaVuSans-73" transform="translate(751.470703 0)"/>
      <use xlink:href="#DejaVuSans-20" transform="translate(803.570312 0)"/>
      <use xlink:href="#DejaVuSans-41" transform="translate(835.357422 0)"/>
      <use xlink:href="#DejaVuSans-70" transform="translate(903.765625 0)"/>
      <use xlink:href="#DejaVuSans-6c" transform="translate(967.242188 0)"/>
      <use xlink:href="#DejaVuSans-69" transform="translate(995.025391 0)"/>
      <use xlink:href="#DejaVuSans-63" transform="translate(1022.808594 0)"/>
      <use xlink:href="#DejaVuSans-61" transform="translate(1077.789062 0)"/>
      <use xlink:href="#DejaVuSans-64" transform="translate(1139.068359 0)"/>
      <use xlink:href="#DejaVuSans-61" transform="translate(1202.544922 0)"/>
      <use xlink:href="#DejaVuSans-73" transform="translate(1263.824219 0)"/>
     </g>
    </g>
   </g>
   <g id="line2d_38">
    <path d="M 246.32805 511.003636 
L 247.508179 510.903511 
L 247.901556 510.820281 
L 248.294932 510.565905 
L 249.475062 510.244358 
L 250.655191 509.523257 
L 251.048567 509.181606 
L 252.622073 508.615315 
L 254.195579 507.63788 
L 254.588955 507.588764 
L 255.375708 507.101178 
L 256.162461 506.555806 
L 256.555838 506.149413 
L 257.342591 505.98956 
L 259.309473 504.550663 
L 260.489602 504.092344 
L 262.456484 503.015904 
L 262.849861 502.985752 
L 264.02999 501.778826 
L 264.816743 500.98619 
L 265.996872 500.246513 
L 267.963754 498.478912 
L 268.357131 498.419303 
L 270.324013 496.206116 
L 270.71739 495.959536 
L 271.110766 495.867971 
L 272.290895 494.062311 
L 273.471025 492.096703 
L 273.864401 491.855307 
L 275.437907 488.385082 
L 276.618036 487.409649 
L 277.011413 486.701311 
L 278.191542 483.864303 
L 278.584918 483.02065 
L 278.978295 482.509108 
L 279.371671 482.251264 
L 281.338553 477.859762 
L 281.73193 477.281591 
L 282.125306 477.0796 
L 282.912059 475.097635 
L 283.305436 474.56908 
L 283.698812 473.789283 
L 284.092188 472.101427 
L 284.485565 471.701887 
L 284.878941 471.57704 
L 286.845824 466.109724 
L 287.2392 465.859321 
L 287.632576 465.772101 
L 288.812706 463.100565 
L 289.599459 461.138461 
L 289.992835 460.830974 
L 290.386212 460.744155 
L 291.959717 457.410347 
L 292.353094 456.719231 
L 293.139847 456.130448 
L 294.713352 452.946003 
L 295.106729 452.164356 
L 295.500105 451.845167 
L 297.860364 447.204512 
L 298.25374 446.823128 
L 298.647117 446.716312 
L 299.43387 445.197879 
L 299.827246 444.054226 
L 300.613999 442.845266 
L 301.007375 442.253146 
L 301.400752 442.040455 
L 301.794128 441.280302 
L 303.367634 436.679213 
L 303.761011 436.067044 
L 304.154387 435.737465 
L 304.94114 433.393769 
L 305.334516 432.218551 
L 306.121269 428.449862 
L 306.514646 427.552016 
L 306.908022 427.114618 
L 308.874904 420.300984 
L 309.268281 419.561082 
L 309.661657 419.329505 
L 310.055034 418.249826 
L 310.44841 416.451195 
L 311.628539 412.455282 
L 312.021916 411.786647 
L 312.415292 411.460943 
L 314.382174 403.976621 
L 314.775551 403.095676 
L 315.168927 402.697228 
L 315.95568 400.041157 
L 317.13581 395.782 
L 317.529186 394.868512 
L 317.922562 394.637559 
L 318.709315 391.363872 
L 319.889445 386.113821 
L 320.282821 385.210919 
L 320.676198 384.901245 
L 321.46295 382.041593 
L 322.64308 377.153117 
L 323.036456 376.222743 
L 323.429833 375.941684 
L 323.823209 374.83911 
L 324.216585 373.081357 
L 324.609962 370.774202 
L 325.396715 367.504931 
L 325.790091 366.740586 
L 326.183468 366.393133 
L 326.576844 364.962053 
L 328.15035 356.777621 
L 328.543726 355.467585 
L 328.937103 355.027177 
L 329.330479 353.066475 
L 329.723856 350.222497 
L 330.510609 345.950746 
L 330.903985 343.948694 
L 331.297361 342.802065 
L 331.690738 342.247309 
L 333.65762 332.896886 
L 334.050997 331.636594 
L 334.444373 331.07278 
L 334.837749 329.609808 
L 335.624502 325.205027 
L 336.411255 321.500445 
L 336.804632 320.507518 
L 337.198008 320.132475 
L 337.591384 318.709299 
L 337.984761 318.185981 
L 338.771514 314.461208 
L 339.16489 312.18052 
L 339.558267 310.943855 
L 339.951643 310.482233 
L 340.34502 309.068217 
L 341.131772 305.24523 
L 341.525149 303.828343 
L 341.918525 301.616186 
L 342.311902 300.588216 
L 342.705278 300.185912 
L 343.098655 299.049479 
L 344.67216 292.313859 
L 345.065537 291.281325 
L 345.458913 290.795684 
L 345.85229 289.586543 
L 347.425796 282.551145 
L 347.819172 281.555011 
L 348.212548 281.195206 
L 348.605925 280.151937 
L 349.786054 275.333831 
L 350.179431 273.72764 
L 350.572807 272.773138 
L 350.966183 272.180631 
L 351.35956 271.219079 
L 351.752936 270.843756 
L 352.146313 270.024122 
L 352.933066 265.83494 
L 353.326442 264.595697 
L 353.719819 264.098057 
L 354.113195 263.017497 
L 355.293324 258.475022 
L 355.686701 257.202106 
L 356.473454 255.801771 
L 357.260207 251.750082 
L 358.440336 247.046133 
L 359.227089 246.118479 
L 360.013842 245.630632 
L 360.407218 244.638566 
L 360.800595 243.281137 
L 361.193971 241.365858 
L 361.980724 240.173237 
L 363.55423 234.416389 
L 363.947606 233.24922 
L 364.340982 232.602376 
L 364.734359 232.220546 
L 365.521112 231.003424 
L 366.307865 228.329523 
L 366.701241 227.110539 
L 367.88137 224.651425 
L 368.668123 222.446342 
L 369.0615 221.646958 
L 369.454876 220.473731 
L 370.241629 219.676701 
L 370.635006 219.454654 
L 371.421758 216.658038 
L 371.815135 215.540503 
L 372.208511 213.916484 
L 372.601888 213.172262 
L 372.995264 213.019354 
L 374.175393 210.30862 
L 374.962146 208.163445 
L 375.748899 207.809822 
L 376.142276 207.217392 
L 376.535652 206.399559 
L 377.322405 204.287714 
L 377.715781 203.569346 
L 378.109158 203.371262 
L 378.502534 203.325805 
L 379.289287 201.91561 
L 380.07604 199.890311 
L 381.649546 199.381231 
L 382.436299 197.764362 
L 382.829675 197.342328 
L 383.616428 197.220887 
L 384.009805 197.179622 
L 385.189934 195.008712 
L 386.76344 193.005449 
L 387.550192 191.194266 
L 388.730322 188.983819 
L 389.123698 188.70635 
L 389.517075 185.797894 
L 389.910451 182.03146 
L 390.303828 181.240229 
L 391.09058 178.905874 
L 391.483957 178.094444 
L 391.877333 176.902052 
L 392.27071 176.705704 
L 392.664086 174.881571 
L 393.450839 172.745886 
L 394.237592 169.563714 
L 394.630968 168.926789 
L 395.024345 168.789942 
L 396.204474 165.186808 
L 396.991227 162.663284 
L 397.77798 161.012537 
L 398.564733 158.815758 
L 399.351486 155.796503 
L 399.744862 154.105301 
L 400.138239 153.33567 
L 400.531615 152.971131 
L 401.711744 150.255596 
L 402.105121 149.006808 
L 402.498497 147.192191 
L 402.891874 146.322535 
L 403.28525 145.966867 
L 404.465379 143.219597 
L 405.252132 140.429043 
L 405.645509 139.925277 
L 406.038885 139.749662 
L 406.432262 138.998386 
L 406.825638 138.844956 
L 408.399144 136.439957 
L 408.79252 136.256072 
L 409.97265 133.613391 
L 410.366026 131.636736 
L 410.759403 130.939697 
L 411.152779 129.911456 
L 411.546155 129.707165 
L 413.119661 126.807629 
L 413.513038 125.812366 
L 413.906414 125.254482 
L 414.29979 125.101686 
L 414.693167 124.237654 
L 416.266673 121.857839 
L 416.660049 121.61579 
L 417.053426 121.206617 
L 417.446802 120.611029 
L 418.233555 118.310312 
L 418.626931 117.604879 
L 420.200437 115.900537 
L 421.380566 113.514946 
L 421.773943 112.812164 
L 422.167319 112.404694 
L 422.560696 112.227389 
L 424.134202 109.796908 
L 425.314331 109.357519 
L 425.707707 109.031105 
L 426.49446 107.516579 
L 426.887837 107.096974 
L 428.461342 106.583357 
L 428.854719 106.322427 
L 429.248095 105.454524 
L 430.034848 104.485477 
L 430.821601 104.096305 
L 431.608354 103.317706 
L 432.00173 102.829032 
L 432.395107 102.518702 
L 432.788483 101.968978 
L 434.361989 101.23018 
L 435.148742 98.977929 
L 435.542118 98.818616 
L 436.722248 98.69869 
L 438.295753 97.005648 
L 438.68913 96.965462 
L 440.656012 95.357468 
L 441.049388 94.040595 
L 441.442765 93.72946 
L 441.836141 93.645021 
L 443.016271 93.046233 
L 444.1964 91.153292 
L 444.589776 90.966705 
L 444.983153 90.631449 
L 445.769906 89.430868 
L 446.163282 87.869786 
L 446.950035 87.233901 
L 447.343412 87.197476 
L 448.130164 86.459153 
L 449.310294 85.557089 
L 450.097047 85.412768 
L 452.063929 83.232415 
L 452.457305 83.228451 
L 452.850682 83.093654 
L 453.244058 82.685842 
L 454.030811 80.268452 
L 454.424187 80.18944 
L 454.817564 79.578133 
L 455.21094 79.369076 
L 455.604317 79.008455 
L 455.997693 78.248819 
L 457.964575 76.793476 
L 458.357952 76.714638 
L 458.751328 75.649045 
L 459.538081 75.266949 
L 459.931458 74.227456 
L 461.111587 73.830348 
L 463.865222 70.277696 
L 469.765869 69.992492 
L 470.552622 69.587822 
L 471.339374 68.827474 
L 472.519504 68.572107 
L 473.699633 67.552287 
L 475.273139 67.35941 
L 476.059892 67.089902 
L 477.633397 66.948457 
L 478.026774 65.788843 
L 478.42015 65.73432 
L 479.206903 65.386574 
L 479.60028 65.34342 
L 479.993656 65.17305 
L 481.960538 64.950706 
L 482.353915 64.773265 
L 483.927421 64.538151 
L 484.714173 64.293382 
L 486.681056 64.023536 
L 487.861185 63.693103 
L 488.647938 63.604458 
L 489.041314 63.173113 
L 489.828067 63.028888 
L 499.269102 62.906067 
L 508.31676 62.876042 
L 509.103513 62.5755 
L 513.430654 62.565592 
L 514.217407 61.468832 
L 514.610783 59.910513 
L 516.184289 59.821021 
L 520.51143 59.637387 
L 520.904806 58.172094 
L 521.298182 58.142643 
L 521.691559 56.225175 
L 528.378958 55.964822 
L 529.165711 54.245829 
L 530.739217 54.175936 
L 533.099476 54.162995 
L 533.492852 53.940164 
L 536.246487 53.852849 
L 536.639864 53.077377 
L 539.786875 52.926983 
L 540.180252 52.622589 
L 542.147134 52.55048 
L 544.114016 52.220131 
L 546.867651 52.161481 
L 547.261028 51.647664 
L 549.22791 51.630731 
L 550.014663 51.458027 
L 553.161674 51.372499 
L 553.948427 51.155609 
L 554.341804 50.720146 
L 555.128556 50.69416 
L 555.521933 50.524417 
L 558.668944 50.276364 
L 558.668944 50.276364 
" clip-path="url(#pc2cdb94568)" style="fill: none; stroke: #1f77b4; stroke-width: 3; stroke-linecap: square"/>
   </g>
   <g id="patch_8">
    <path d="M 60.32 534.04 
L 60.32 27.24 
" style="fill: none; stroke: #000000; stroke-width: 0.8; stroke-linejoin: miter; stroke-linecap: square"/>
   </g>
   <g id="patch_9">
    <path d="M 985.03 534.04 
L 985.03 27.24 
" style="fill: none; stroke: #000000; stroke-width: 0.8; stroke-linejoin: miter; stroke-linecap: square"/>
   </g>
   <g id="patch_10">
    <path d="M 60.32 534.04 
L 985.03 534.04 
" style="fill: none; stroke: #000000; stroke-width: 0.8; stroke-linejoin: miter; stroke-linecap: square"/>
   </g>
   <g id="patch_11">
    <path d="M 60.32 27.24 
L 985.03 27.24 
" style="fill: none; stroke: #000000; stroke-width: 0.8; stroke-linejoin: miter; stroke-linecap: square"/>
   </g>
   <g id="text_26">
    <!-- Vacinação vs. Queda no Número Absoluto de Mortes (Brasil) -->
    <g transform="translate(341.830312 21.24) scale(0.12 -0.12)">
     <defs>
      <path id="DejaVuSans-e7" d="M 3122 3366 
L 3122 2828 
Q 2878 2963 2633 3030 
Q 2388 3097 2138 3097 
Q 1578 3097 1268 2742 
Q 959 2388 959 1747 
Q 959 1106 1268 751 
Q 1578 397 2138 397 
Q 2388 397 2633 464 
Q 2878 531 3122 666 
L 3122 134 
Q 2881 22 2623 -34 
Q 2366 -91 2075 -91 
Q 1284 -91 818 406 
Q 353 903 353 1747 
Q 353 2603 823 3093 
Q 1294 3584 2113 3584 
Q 2378 3584 2631 3529 
Q 2884 3475 3122 3366 
z
M 2311 0 
Q 2482 -194 2566 -358 
Q 2651 -522 2651 -672 
Q 2651 -950 2463 -1092 
Q 2276 -1234 1907 -1234 
Q 1764 -1234 1628 -1215 
Q 1492 -1197 1357 -1159 
L 1357 -750 
Q 1464 -803 1579 -826 
Q 1695 -850 1842 -850 
Q 2026 -850 2120 -775 
Q 2214 -700 2214 -556 
Q 2214 -463 2146 -327 
Q 2079 -191 1939 0 
L 2311 0 
z
" transform="scale(0.015625)"/>
      <path id="DejaVuSans-e3" d="M 2194 1759 
Q 1497 1759 1228 1600 
Q 959 1441 959 1056 
Q 959 750 1161 570 
Q 1363 391 1709 391 
Q 2188 391 2477 730 
Q 2766 1069 2766 1631 
L 2766 1759 
L 2194 1759 
z
M 3341 1997 
L 3341 0 
L 2766 0 
L 2766 531 
Q 2569 213 2275 61 
Q 1981 -91 1556 -91 
Q 1019 -91 701 211 
Q 384 513 384 1019 
Q 384 1609 779 1909 
Q 1175 2209 1959 2209 
L 2766 2209 
L 2766 2266 
Q 2766 2663 2505 2880 
Q 2244 3097 1772 3097 
Q 1472 3097 1187 3025 
Q 903 2953 641 2809 
L 641 3341 
Q 956 3463 1253 3523 
Q 1550 3584 1831 3584 
Q 2591 3584 2966 3190 
Q 3341 2797 3341 1997 
z
M 1844 4281 
L 1665 4453 
Q 1597 4516 1545 4545 
Q 1494 4575 1453 4575 
Q 1334 4575 1278 4461 
Q 1222 4347 1215 4091 
L 825 4091 
Q 831 4513 990 4742 
Q 1150 4972 1434 4972 
Q 1553 4972 1653 4928 
Q 1753 4884 1869 4781 
L 2047 4609 
Q 2115 4547 2167 4517 
Q 2219 4488 2259 4488 
Q 2378 4488 2434 4602 
Q 2490 4716 2497 4972 
L 2887 4972 
Q 2881 4550 2721 4320 
Q 2562 4091 2278 4091 
Q 2159 4091 2059 4134 
Q 1959 4178 1844 4281 
z
" transform="scale(0.015625)"/>
      <path id="DejaVuSans-2e" d="M 684 794 
L 1344 794 
L 1344 0 
L 684 0 
L 684 794 
z
" transform="scale(0.015625)"/>
      <path id="DejaVuSans-51" d="M 2522 4238 
Q 1834 4238 1429 3725 
Q 1025 3213 1025 2328 
Q 1025 1447 1429 934 
Q 1834 422 2522 422 
Q 3209 422 3611 934 
Q 4013 1447 4013 2328 
Q 4013 3213 3611 3725 
Q 3209 4238 2522 4238 
z
M 3406 84 
L 4238 -825 
L 3475 -825 
L 2784 -78 
Q 2681 -84 2626 -87 
Q 2572 -91 2522 -91 
Q 1538 -91 948 567 
Q 359 1225 359 2328 
Q 359 3434 948 4092 
Q 1538 4750 2522 4750 
Q 3503 4750 4090 4092 
Q 4678 3434 4678 2328 
Q 4678 1516 4351 937 
Q 4025 359 3406 84 
z
" transform="scale(0.015625)"/>
      <path id="DejaVuSans-75" d="M 544 1381 
L 544 3500 
L 1119 3500 
L 1119 1403 
Q 1119 906 1312 657 
Q 1506 409 1894 409 
Q 2359 409 2629 706 
Q 2900 1003 2900 1516 
L 2900 3500 
L 3475 3500 
L 3475 0 
L 2900 0 
L 2900 538 
Q 2691 219 2414 64 
Q 2138 -91 1772 -91 
Q 1169 -91 856 284 
Q 544 659 544 1381 
z
M 1991 3584 
L 1991 3584 
z
" transform="scale(0.015625)"/>
      <path id="DejaVuSans-4e" d="M 628 4666 
L 1478 4666 
L 3547 763 
L 3547 4666 
L 4159 4666 
L 4159 0 
L 3309 0 
L 1241 3903 
L 1241 0 
L 628 0 
L 628 4666 
z
" transform="scale(0.015625)"/>
      <path id="DejaVuSans-fa" d="M 544 1381 
L 544 3500 
L 1119 3500 
L 1119 1403 
Q 1119 906 1312 657 
Q 1506 409 1894 409 
Q 2359 409 2629 706 
Q 2900 1003 2900 1516 
L 2900 3500 
L 3475 3500 
L 3475 0 
L 2900 0 
L 2900 538 
Q 2691 219 2414 64 
Q 2138 -91 1772 -91 
Q 1169 -91 856 284 
Q 544 659 544 1381 
z
M 1991 3584 
L 1991 3584 
z
M 2418 5119 
L 3040 5119 
L 2022 3944 
L 1543 3944 
L 2418 5119 
z
" transform="scale(0.015625)"/>
      <path id="DejaVuSans-6d" d="M 3328 2828 
Q 3544 3216 3844 3400 
Q 4144 3584 4550 3584 
Q 5097 3584 5394 3201 
Q 5691 2819 5691 2113 
L 5691 0 
L 5113 0 
L 5113 2094 
Q 5113 2597 4934 2840 
Q 4756 3084 4391 3084 
Q 3944 3084 3684 2787 
Q 3425 2491 3425 1978 
L 3425 0 
L 2847 0 
L 2847 2094 
Q 2847 2600 2669 2842 
Q 2491 3084 2119 3084 
Q 1678 3084 1418 2786 
Q 1159 2488 1159 1978 
L 1159 0 
L 581 0 
L 581 3500 
L 1159 3500 
L 1159 2956 
Q 1356 3278 1631 3431 
Q 1906 3584 2284 3584 
Q 2666 3584 2933 3390 
Q 3200 3197 3328 2828 
z
" transform="scale(0.015625)"/>
      <path id="DejaVuSans-62" d="M 3116 1747 
Q 3116 2381 2855 2742 
Q 2594 3103 2138 3103 
Q 1681 3103 1420 2742 
Q 1159 2381 1159 1747 
Q 1159 1113 1420 752 
Q 1681 391 2138 391 
Q 2594 391 2855 752 
Q 3116 1113 3116 1747 
z
M 1159 2969 
Q 1341 3281 1617 3432 
Q 1894 3584 2278 3584 
Q 2916 3584 3314 3078 
Q 3713 2572 3713 1747 
Q 3713 922 3314 415 
Q 2916 -91 2278 -91 
Q 1894 -91 1617 61 
Q 1341 213 1159 525 
L 1159 0 
L 581 0 
L 581 4863 
L 1159 4863 
L 1159 2969 
z
" transform="scale(0.015625)"/>
      <path id="DejaVuSans-42" d="M 1259 2228 
L 1259 519 
L 2272 519 
Q 2781 519 3026 730 
Q 3272 941 3272 1375 
Q 3272 1813 3026 2020 
Q 2781 2228 2272 2228 
L 1259 2228 
z
M 1259 4147 
L 1259 2741 
L 2194 2741 
Q 2656 2741 2882 2914 
Q 3109 3088 3109 3444 
Q 3109 3797 2882 3972 
Q 2656 4147 2194 4147 
L 1259 4147 
z
M 628 4666 
L 2241 4666 
Q 2963 4666 3353 4366 
Q 3744 4066 3744 3513 
Q 3744 3084 3544 2831 
Q 3344 2578 2956 2516 
Q 3422 2416 3680 2098 
Q 3938 1781 3938 1306 
Q 3938 681 3513 340 
Q 3088 0 2303 0 
L 628 0 
L 628 4666 
z
" transform="scale(0.015625)"/>
     </defs>
     <use xlink:href="#DejaVuSans-56"/>
     <use xlink:href="#DejaVuSans-61" transform="translate(60.658203 0)"/>
     <use xlink:href="#DejaVuSans-63" transform="translate(121.9375 0)"/>
     <use xlink:href="#DejaVuSans-69" transform="translate(176.917969 0)"/>
     <use xlink:href="#DejaVuSans-6e" transform="translate(204.701172 0)"/>
     <use xlink:href="#DejaVuSans-61" transform="translate(268.080078 0)"/>
     <use xlink:href="#DejaVuSans-e7" transform="translate(329.359375 0)"/>
     <use xlink:href="#DejaVuSans-e3" transform="translate(384.339844 0)"/>
     <use xlink:href="#DejaVuSans-6f" transform="translate(445.619141 0)"/>
     <use xlink:href="#DejaVuSans-20" transform="translate(506.800781 0)"/>
     <use xlink:href="#DejaVuSans-76" transform="translate(538.587891 0)"/>
     <use xlink:href="#DejaVuSans-73" transform="translate(597.767578 0)"/>
     <use xlink:href="#DejaVuSans-2e" transform="translate(649.867188 0)"/>
     <use xlink:href="#DejaVuSans-20" transform="translate(681.654297 0)"/>
     <use xlink:href="#DejaVuSans-51" transform="translate(713.441406 0)"/>
     <use xlink:href="#DejaVuSans-75" transform="translate(792.152344 0)"/>
     <use xlink:href="#DejaVuSans-65" transform="translate(855.53125 0)"/>
     <use xlink:href="#DejaVuSans-64" transform="translate(917.054688 0)"/>
     <use xlink:href="#DejaVuSans-61" transform="translate(980.53125 0)"/>
     <use xlink:href="#DejaVuSans-20" transform="translate(1041.810547 0)"/>
     <use xlink:href="#DejaVuSans-6e" transform="translate(1073.597656 0)"/>
     <use xlink:href="#DejaVuSans-6f" transform="translate(1136.976562 0)"/>
     <use xlink:href="#DejaVuSans-20" transform="translate(1198.158203 0)"/>
     <use xlink:href="#DejaVuSans-4e" transform="translate(1229.945312 0)"/>
     <use xlink:href="#DejaVuSans-fa" transform="translate(1304.75 0)"/>
     <use xlink:href="#DejaVuSans-6d" transform="translate(1368.128906 0)"/>
     <use xlink:href="#DejaVuSans-65" transform="translate(1465.541016 0)"/>
     <use xlink:href="#DejaVuSans-72" transform="translate(1527.064453 0)"/>
     <use xlink:href="#DejaVuSans-6f" transform="translate(1565.927734 0)"/>
     <use xlink:href="#DejaVuSans-20" transform="translate(1627.109375 0)"/>
     <use xlink:href="#DejaVuSans-41" transform="translate(1658.896484 0)"/>
     <use xlink:href="#DejaVuSans-62" transform="translate(1727.304688 0)"/>
     <use xlink:href="#DejaVuSans-73" transform="translate(1790.78125 0)"/>
     <use xlink:href="#DejaVuSans-6f" transform="translate(1842.880859 0)"/>
     <use xlink:href="#DejaVuSans-6c" transform="translate(1904.0625 0)"/>
     <use xlink:href="#DejaVuSans-75" transform="translate(1931.845703 0)"/>
     <use xlink:href="#DejaVuSans-74" transform="translate(1995.224609 0)"/>
     <use xlink:href="#DejaVuSans-6f" transform="translate(2034.433594 0)"/>
     <use xlink:href="#DejaVuSans-20" transform="translate(2095.615234 0)"/>
     <use xlink:href="#DejaVuSans-64" transform="translate(2127.402344 0)"/>
     <use xlink:href="#DejaVuSans-65" transform="translate(2190.878906 0)"/>
     <use xlink:href="#DejaVuSans-20" transform="translate(2252.402344 0)"/>
     <use xlink:href="#DejaVuSans-4d" transform="translate(2284.189453 0)"/>
     <use xlink:href="#DejaVuSans-6f" transform="translate(2370.46875 0)"/>
     <use xlink:href="#DejaVuSans-72" transform="translate(2431.650391 0)"/>
     <use xlink:href="#DejaVuSans-74" transform="translate(2472.763672 0)"/>
     <use xlink:href="#DejaVuSans-65" transform="translate(2511.972656 0)"/>
     <use xlink:href="#DejaVuSans-73" transform="translate(2573.496094 0)"/>
     <use xlink:href="#DejaVuSans-20" transform="translate(2625.595703 0)"/>
     <use xlink:href="#DejaVuSans-28" transform="translate(2657.382812 0)"/>
     <use xlink:href="#DejaVuSans-42" transform="translate(2696.396484 0)"/>
     <use xlink:href="#DejaVuSans-72" transform="translate(2765 0)"/>
     <use xlink:href="#DejaVuSans-61" transform="translate(2806.113281 0)"/>
     <use xlink:href="#DejaVuSans-73" transform="translate(2867.392578 0)"/>
     <use xlink:href="#DejaVuSans-69" transform="translate(2919.492188 0)"/>
     <use xlink:href="#DejaVuSans-6c" transform="translate(2947.275391 0)"/>
     <use xlink:href="#DejaVuSans-29" transform="translate(2975.058594 0)"/>
    </g>
   </g>
  </g>
 </g>
 <defs>
  <clipPath id="pc2cdb94568">
   <rect x="60.32" y="27.24" width="924.71" height="506.8"/>
  </clipPath>
 </defs>
</svg>
